<svg width="32" height="32" viewBox="0 0 32 32" fill="none" xmlns="http://www.w3.org/2000/svg">
<path fill-rule="evenodd" clip-rule="evenodd" d="M0.871948 4.36808C0 6.07937 0 8.31958 0 12.8V16V19.2C0 23.6804 0 25.9206 0.871948 27.6319C1.63893 29.1372 2.86278 30.3611 4.36808 31.1281C6.07937 32 8.31958 32 12.8 32H16H19.2C23.6804 32 25.9206 32 27.6319 31.1281C29.1372 30.3611 30.3611 29.1372 31.1281 27.6319C32 25.9206 32 23.6804 32 19.2V16V12.8C32 8.31958 32 6.07937 31.1281 4.36808C30.3611 2.86278 29.1372 1.63893 27.6319 0.871948C25.9206 0 23.6804 0 19.2 0H16H12.8C8.31958 0 6.07937 0 4.36808 0.871948C2.86278 1.63893 1.63893 2.86278 0.871948 4.36808ZM16 0C16 8.83656 23.1634 16 32 16C23.1634 16 16 23.1634 16 32C16 23.1634 8.83656 16 0 16C8.83656 16 16 8.83656 16 0Z" fill="url(#paint0_linear_6803_3)"/>
<defs>
<linearGradient id="paint0_linear_6803_3" x1="0" y1="32" x2="32" y2="3.8147e-06" gradientUnits="userSpaceOnUse">
<stop stop-color="#A01AF8"/>
<stop offset="0.499263" stop-color="#FB0F42"/>
<stop offset="1" stop-color="#FFB647"/>
</linearGradient>
</defs>
</svg>
