<svg width="106" height="45" viewBox="0 0 106 45" fill="none" xmlns="http://www.w3.org/2000/svg">
<g clip-path="url(#clip0_6786_13342)">
<path d="M9.35635 10.5719H15.6421V20.8576C13.4992 21.2862 11.9278 21.5719 10.0706 21.5719C3.07063 21.5719 0.642059 17.5719 0.642059 11.0005C0.642059 4.00049 4.07063 0.000488281 10.7849 0.000488281C11.6421 0.000488281 13.3563 0.000488281 15.3563 0.42906V7.00049H13.9278L13.2135 4.57192C12.3563 2.14335 11.4992 0.857631 9.92777 0.857631C7.35635 0.857631 5.92777 4.42906 5.92777 10.8576C5.92777 17.4291 6.4992 20.5719 9.92777 20.5719C10.3563 20.5719 10.9278 20.5719 11.4992 20.2862V12.8576L9.4992 11.4291L9.35635 10.5719ZM15.6421 38.4291C15.6421 42.5719 12.7849 45.0005 7.78492 45.0005C6.35635 45.0005 4.35635 44.7148 2.4992 44.4291V36.2862H3.92777L4.4992 38.1433C5.92777 42.5719 6.78492 44.0005 8.64206 44.0005C10.4992 44.0005 11.7849 42.4291 11.7849 40.2862C11.7849 38.5719 10.9278 37.2862 9.21349 36.4291L6.21349 34.7148C3.92777 33.4291 2.64206 31.5719 2.64206 29.1433C2.64206 25.5719 5.64206 23.4291 10.4992 23.4291C11.6421 23.4291 12.9278 23.5719 14.9278 23.8576V30.4291H13.4992L12.6421 27.8576C11.7849 25.1433 10.9278 24.1433 9.35635 24.1433C7.64206 24.1433 6.4992 25.2862 6.4992 27.0005C6.4992 28.5719 7.35634 29.5719 8.92777 30.5719L12.0706 32.2862C14.3563 33.7148 15.6421 35.7148 15.6421 38.4291ZM29.0706 43.1433L29.6421 44.0005V44.4291H24.9278L24.6421 42.7148C24.0706 44.0005 22.9278 44.8576 21.2135 44.8576C18.7849 44.8576 17.2135 43.2862 17.2135 40.8576C17.2135 38.4291 18.6421 36.8576 22.7849 35.1433L24.4992 34.4291V32.1433C24.4992 30.1433 24.0706 29.2862 22.9278 29.2862C22.0706 29.2862 21.4992 29.8576 20.6421 32.0005L19.6421 34.5719H18.2135V29.5719C19.9278 29.0005 21.7849 28.7148 23.3563 28.7148C26.7849 28.7148 28.6421 30.4291 28.6421 33.4291V43.1433H29.0706ZM30.9278 13.4291C30.9278 18.5719 28.2135 21.5719 24.6421 21.5719C21.0706 21.5719 18.3563 18.5719 18.3563 13.4291C18.3563 8.2862 20.9278 5.2862 24.4992 5.2862C28.0706 5.2862 30.9278 8.2862 30.9278 13.4291ZM24.7849 40.7148V35.4291L24.2135 35.7148C22.4992 36.4291 21.6421 38.1433 21.6421 40.4291C21.6421 42.1433 22.0706 43.2862 23.0706 43.2862C24.2135 43.1433 24.7849 42.2862 24.7849 40.7148ZM26.3563 13.4291C26.3563 7.57192 25.7849 6.00049 24.4992 6.00049C23.2135 6.00049 22.6421 7.57192 22.6421 13.4291C22.6421 19.2862 23.2135 20.8576 24.4992 20.8576C25.7849 20.8576 26.3563 19.2862 26.3563 13.4291ZM41.6421 40.7148L42.2135 41.0005C41.2135 43.8576 39.9278 44.8576 37.4992 44.8576C33.4992 44.8576 31.3563 41.8576 31.3563 36.7148C31.3563 31.5719 33.9278 28.5719 38.0706 28.5719C39.2135 28.5719 40.6421 28.7148 41.9278 29.2862V34.4291H40.4992L40.0706 32.5719C39.3563 30.0005 38.9278 29.2862 38.0706 29.2862C36.7849 29.2862 35.7849 30.8576 35.7849 36.8576C35.7849 41.7148 36.4992 43.4291 38.3563 43.4291C39.7849 43.5719 40.9278 42.8576 41.6421 40.7148ZM38.3563 21.1433H32.7849V20.7148L33.3563 19.7148V2.71477L32.7849 1.71477V1.42906L37.6421 1.00049V19.8576L38.2135 20.8576V21.1433H38.3563ZM45.7849 21.5719C42.4992 21.5719 40.3563 18.5719 40.3563 13.2862C40.4992 8.14335 42.4992 5.2862 45.7849 5.2862C47.4992 5.2862 48.3563 6.00049 48.7849 7.2862V2.71477L48.2135 1.71477V1.42906L53.0706 1.00049V19.8576L53.6421 20.8576V21.2862H49.3563L49.0706 19.0005C48.4992 20.8576 47.6421 21.5719 45.7849 21.5719ZM56.4992 43.1433L57.0706 44.0005V44.4291H51.4992V44.0005L52.0706 43.1433V32.1433C52.0706 30.8576 51.6421 30.0005 50.7849 30.0005C49.6421 30.0005 48.7849 31.0005 48.7849 32.8576V43.1433L49.3563 44.0005V44.4291H43.7849V44.0005L44.3563 43.1433V26.1433L43.7849 25.1433V24.7148L48.6421 24.2862V30.5719C49.2135 29.2862 50.3563 28.5719 52.2135 28.5719C54.7849 28.5719 56.2135 30.1433 56.2135 33.2862C56.4992 33.2862 56.4992 43.1433 56.4992 43.1433ZM44.9278 13.2862C44.9278 18.8576 45.4992 20.4291 46.7849 20.4291C48.4992 20.4291 48.7849 18.0005 48.7849 13.1433C48.7849 8.42906 48.4992 6.14335 46.7849 6.14335C45.4992 6.2862 44.9278 8.00049 44.9278 13.2862ZM75.6421 19.8576L76.2135 20.8576V21.2862H70.6421V20.8576L71.2135 19.8576V8.57192C71.3563 7.42906 70.9278 6.71477 70.0706 6.71477C69.0706 6.71477 68.0706 7.71477 68.0706 9.42906V19.7148L68.6421 20.7148V21.1433H63.2135V20.7148L63.7849 19.7148V8.57192C63.7849 7.42906 63.3563 6.85763 62.4992 6.85763C61.4992 6.85763 60.4992 7.85763 60.4992 9.57192V19.8576L61.0706 20.8576V21.2862H55.4992V20.8576L56.0706 19.8576V7.42906L55.9278 6.71477V6.2862L60.3563 5.71477H60.7849L60.9278 7.42906C61.4992 6.14335 62.6421 5.42906 64.4992 5.42906C66.3563 5.42906 67.6421 6.2862 68.0706 8.00049C68.4992 6.42906 69.9278 5.42906 71.7849 5.42906C74.2135 5.42906 75.7849 7.00049 75.7849 10.1433V19.8576H75.6421ZM69.9278 40.1433C69.9278 42.8576 68.2135 45.0005 64.0706 45.0005C63.0706 45.0005 61.4992 44.8576 59.3563 44.4291V38.7148H60.6421L61.0706 40.0005C62.0706 43.1433 63.0706 44.2862 64.4992 44.2862C65.9278 44.2862 66.7849 43.2862 66.7849 41.7148C66.7849 40.4291 66.0706 39.5719 64.6421 38.7148L62.0706 37.2862C60.3563 36.4291 59.4992 35.0005 59.4992 33.1433C59.4992 30.4291 61.6421 28.7148 65.2135 28.7148C66.2135 28.7148 67.6421 28.8576 69.0706 29.1433V33.5719H67.7849L67.0706 32.0005C66.3563 30.0005 65.6421 29.4291 64.4992 29.4291C63.2135 29.4291 62.4992 30.1433 62.4992 31.4291C62.4992 32.4291 63.0706 33.1433 64.6421 34.0005L67.2135 35.4291C69.0706 36.4291 69.9278 37.8576 69.9278 40.1433ZM89.6421 19.8576L90.2135 20.8576V21.2862H85.4992L85.2135 19.5719C84.6421 20.8576 83.4992 21.7148 81.7849 21.7148C79.3563 21.7148 77.7849 20.1433 77.7849 17.7148C77.7849 15.2862 79.2135 13.7148 83.3563 12.0005L85.3563 11.0005V8.85763C85.3563 6.85763 84.9278 6.00049 83.7849 6.00049C82.7849 6.00049 82.3563 6.57192 81.4992 8.71477L80.4992 11.2862H79.0706V6.14335C80.9278 5.57192 82.7849 5.2862 84.3563 5.2862C87.7849 5.2862 89.6421 7.00049 89.6421 10.0005V19.8576ZM85.3563 17.2862V12.0005L84.7849 12.2862C83.0706 13.0005 82.2135 14.7148 82.2135 17.0005C82.2135 18.7148 82.6421 19.8576 83.6421 19.8576C84.7849 19.8576 85.3563 18.8576 85.3563 17.2862ZM105.356 20.7148V21.1433H99.7849V20.7148L100.356 19.7148V8.85763C100.356 7.57192 99.9278 6.71477 99.0706 6.71477C98.0706 6.71477 97.2135 7.71477 97.2135 9.57192V19.8576L97.7849 20.8576V21.2862H92.2135V20.8576L92.7849 19.8576V7.42906L92.3563 6.71477V6.2862L96.7849 5.71477H97.2135V7.42906C97.7849 6.14335 98.9278 5.42906 100.785 5.42906C103.356 5.42906 104.785 7.00049 104.785 10.1433V20.0005L105.356 20.7148Z" fill="#7699C6"/>
</g>
<defs>
<clipPath id="clip0_6786_13342">
<rect width="104.714" height="45" fill="white" transform="translate(0.642822)"/>
</clipPath>
</defs>
</svg>
