<svg height="25px" version="1.1" viewBox="0 0 57 25" width="57px" xmlns="http://www.w3.org/2000/svg" xmlns:xlink="http://www.w3.org/1999/xlink"><title>Goldman Sachs Logo</title><g fill="none" fill-rule="evenodd" id="Page-1" stroke="none" stroke-width="1"><path d="M4.77000019,5.76000023 L8.19000033,5.76000023 L8.19000033,11.3400005 C7.05000028,11.5800005 6.18000025,11.7000005 5.22000021,11.7000005 C1.47000006,11.7000005 0.150000006,9.54000038 0.150000006,6.03000024 C0.150000006,2.22000009 1.98000008,0.0900000036 5.64000022,0.0900000036 C6.09000024,0.0900000036 6.99000028,0.120000005 8.07000032,0.300000012 L8.07000032,3.87000015 L7.29000029,3.87000015 L6.84000027,2.4900001 C6.42000026,1.20000005 5.91000023,0.540000021 5.1000002,0.540000021 C3.69000015,0.540000021 2.97000012,2.4300001 2.97000012,5.97000024 C2.97000012,9.54000038 3.27000013,11.2200004 5.1000002,11.2200004 C5.34000021,11.2200004 5.64000022,11.1900004 5.91000023,11.1000004 L5.91000023,6.96000028 L4.80000019,6.21000025 L4.80000019,5.76000023 L4.77000019,5.76000023 Z M8.13000032,20.7600008 C8.13000032,23.0100009 6.60000026,24.300001 3.87000015,24.300001 C3.12000012,24.300001 2.04000008,24.180001 1.02000004,24.030001 L1.02000004,19.6200008 L1.80000007,19.6200008 L2.13000008,20.6700008 C2.88000011,23.0700009 3.39000013,23.8500009 4.35000017,23.8500009 C5.34000021,23.8500009 6.06000024,22.9800009 6.06000024,21.8100009 C6.06000024,20.8800008 5.61000022,20.2200008 4.65000018,19.7100008 L3.00000012,18.8100007 C1.74000007,18.1500007 1.05000004,17.1000007 1.05000004,15.8100006 C1.05000004,13.8600006 2.6400001,12.6900005 5.28000021,12.6900005 C5.88000023,12.6900005 6.57000026,12.7500005 7.68000031,12.9000005 L7.68000031,16.4700007 L6.90000027,16.4700007 L6.45000026,15.0900006 C6.00000024,13.6500005 5.52000004,13.1100005 4.65000018,13.1100005 C3.69000015,13.1100005 3.09000012,13.7400005 3.09000012,14.6400006 C3.09000012,15.4500006 3.54000014,16.0200006 4.41000018,16.5300007 L6.09000024,17.4600007 C7.4700003,18.2700007 8.13000032,19.3200008 8.13000032,20.7600008 Z M15.4200006,23.3700009 L15.7500006,23.8500009 L15.7500006,24.090001 L13.2300005,24.090001 L13.1100005,23.1300009 C12.8400005,23.8500009 12.1500005,24.270001 11.2500004,24.270001 C9.93000039,24.270001 9.12000036,23.4300009 9.12000036,22.0800009 C9.12000036,20.7600008 9.87000039,19.8900008 12.1500005,18.9900008 L13.1100005,18.6000007 L13.1100005,17.3700007 C13.1100005,16.2900006 12.9000005,15.8400006 12.3000005,15.8400006 C11.7900005,15.8400006 11.5200005,16.1100006 11.0400004,17.3100007 L10.5000004,18.7200007 L9.75000039,18.7200007 L9.75000039,16.0200006 C10.7100004,15.7200006 11.7000005,15.5400006 12.5400005,15.5400006 C14.4000006,15.5400006 15.4200006,16.4400007 15.4200006,18.0600007 L15.4200006,23.3700009 Z M16.3800007,7.32000029 C16.3800007,10.1100004 14.8800006,11.7000005 12.9600005,11.7000005 C11.0400004,11.7000005 9.54000038,10.1100004 9.54000038,7.32000029 C9.54000038,4.53000018 11.0400004,2.94000012 12.9600005,2.94000012 C14.8800006,2.91000012 16.3800007,4.50000018 16.3800007,7.32000029 Z M13.1100005,21.9900009 L13.1100005,19.1400008 L12.8100005,19.2600008 C11.8500005,19.6500008 11.4600005,20.5500008 11.4600005,21.8400009 C11.4600005,22.8000009 11.7000005,23.3700009 12.2400005,23.3700009 C12.7800005,23.3700009 13.1100005,22.8600009 13.1100005,21.9900009 Z M13.9500006,7.32000029 C13.9500006,4.14000016 13.6800005,3.30000013 12.9300005,3.30000013 C12.1800005,3.30000013 11.9100005,4.14000016 11.9100005,7.32000029 C11.9100005,10.5000004 12.1800005,11.3400005 12.9300005,11.3400005 C13.6800005,11.3400005 13.9500006,10.4700004 13.9500006,7.32000029 Z M22.2300009,22.0500009 L22.5300009,22.2000009 C21.9900009,23.7300009 21.3300008,24.300001 20.0100008,24.300001 C17.8800007,24.300001 16.6800007,22.7100009 16.6800007,19.9200008 C16.6800007,17.1300007 18.0600007,15.5400006 20.3400008,15.5400006 C20.9400008,15.5400006 21.7500009,15.6300006 22.4400009,15.9300006 L22.4400009,18.7200007 L21.6600009,18.7200007 L21.3600008,17.6700007 C20.9400008,16.2600006 20.7300008,15.9000006 20.3100008,15.9000006 C19.6500008,15.9000006 19.1100008,16.7700007 19.1100008,20.0100008 C19.1100008,22.6200009 19.5000008,23.5800009 20.5200008,23.5800009 C21.2100008,23.5800009 21.7800009,23.1600009 22.2300009,22.0500009 Z M20.4000008,11.4900005 L17.4300007,11.4900005 L17.4300007,11.2500004 L17.7600007,10.7400004 L17.7600007,1.56000006 L17.4300007,1.05000004 L17.4300007,0.810000032 L20.0700008,0.600000024 L20.0700008,10.7400004 L20.4000008,11.2500004 L20.4000008,11.4900005 Z M24.450001,11.7000005 C22.6500009,11.7000005 21.5400009,10.0500004 21.5400009,7.23000029 C21.5400009,4.44000018 22.6800009,2.91000012 24.420001,2.91000012 C25.320001,2.91000012 25.800001,3.27000013 26.010001,3.96000016 L26.010001,1.56000006 L25.680001,1.05000004 L25.680001,0.810000032 L28.3500011,0.600000024 L28.3500011,10.7400004 L28.6800011,11.2500004 L28.6800011,11.4900005 L26.340001,11.4900005 L26.160001,10.2300004 C25.890001,11.3100004 25.410001,11.7000005 24.450001,11.7000005 Z M30.5700012,23.8500009 L30.5700012,24.090001 L27.6000011,24.090001 L27.6000011,23.8500009 L27.9300011,23.3700009 L27.9300011,17.4300007 C27.9300011,16.7100007 27.7200011,16.2900006 27.2100011,16.2900006 C26.6100011,16.2900006 26.160001,16.8000007 26.160001,17.8200007 L26.160001,23.3700009 L26.4900011,23.8500009 L26.4900011,24.090001 L23.5200009,24.090001 L23.5200009,23.8500009 L23.8500009,23.3700009 L23.8500009,14.1600006 L23.5200009,13.6500005 L23.5200009,13.4100005 L26.160001,13.2000005 L26.160001,16.6200007 C26.4600011,15.9000006 27.1200011,15.5100006 28.0800011,15.5100006 C29.4300012,15.5100006 30.2400012,16.3800007 30.2400012,18.0300007 L30.2400012,23.3700009 L30.5700012,23.8500009 Z M23.970001,7.26000029 C23.970001,10.2300004 24.240001,11.1300004 24.960001,11.1300004 C25.860001,11.1300004 26.040001,9.84000039 26.040001,7.23000029 C26.040001,4.71000019 25.860001,3.45000014 24.990001,3.45000014 C24.240001,3.45000014 23.970001,4.35000017 23.970001,7.26000029 Z M40.5300016,10.7700004 L40.8600016,11.2800004 L40.8600016,11.5200005 L37.8900015,11.5200005 L37.8900015,11.2800004 L38.2200015,10.7700004 L38.2200015,4.65000018 C38.2200015,4.05000016 38.0100015,3.69000015 37.5600015,3.69000015 C36.9900015,3.69000015 36.5100015,4.20000017 36.5100015,5.19000021 L36.5100015,10.7700004 L36.8400015,11.2800004 L36.8400015,11.5200005 L33.9000013,11.5200005 L33.9000013,11.2800004 L34.2300014,10.7700004 L34.2300014,4.65000018 C34.2300014,4.05000016 34.0200014,3.69000015 33.5700013,3.69000015 C33.0000013,3.69000015 32.5200013,4.20000017 32.5200013,5.19000021 L32.5200013,10.7700004 L32.8500013,11.2800004 L32.8500013,11.5200005 L29.8800012,11.5200005 L29.8800012,11.2800004 L30.2100012,10.7700004 L30.2100012,4.05000016 L29.8800012,3.66000015 L29.8800012,3.42000014 L32.2500013,3.15000013 L32.4600013,3.15000013 L32.5200013,4.08000016 C32.7900013,3.36000013 33.4800013,2.97000012 34.4400014,2.97000012 C35.4600014,2.97000012 36.1200014,3.45000014 36.3900014,4.35000017 C36.6300015,3.48000014 37.4100015,2.97000012 38.4000015,2.97000012 C39.6900016,2.97000012 40.5300016,3.84000015 40.5300016,5.49000022 L40.5300016,10.7700004 Z M37.4700015,21.6900009 C37.4700015,23.1300009 36.5400015,24.300001 34.3200014,24.300001 C33.7500013,24.300001 32.9700013,24.240001 31.7700013,24.030001 L31.7700013,20.9400008 L32.4600013,20.9400008 L32.6700013,21.6000009 C33.2100013,23.2800009 33.7200013,23.910001 34.5300014,23.910001 C35.2800014,23.910001 35.7900014,23.3700009 35.7900014,22.5300009 C35.7900014,21.8400009 35.4300014,21.3600008 34.6200014,20.9100008 L33.2100013,20.1600008 C32.3100013,19.6800008 31.8000013,18.9000008 31.8000013,17.9400007 C31.8000013,16.4400007 32.9700013,15.5400006 34.9200014,15.5400006 C35.4900014,15.5400006 36.2100014,15.6300006 36.9900015,15.7800006 L36.9900015,18.1800007 L36.3000014,18.1800007 L35.9400014,17.3100007 C35.5500014,16.2600006 35.1600014,15.9000006 34.5300014,15.9000006 C33.8400013,15.9000006 33.4500013,16.2900006 33.4500013,16.9500007 C33.4500013,17.5200007 33.7800013,17.8800007 34.5900014,18.3600007 L36.0000014,19.1400008 C36.9600015,19.7100008 37.4700015,20.4900008 37.4700015,21.6900009 Z M48.1200019,10.7700004 L48.4500019,11.2800004 L48.4500019,11.5200005 L45.9300018,11.5200005 L45.8100018,10.5600004 C45.5400018,11.2800004 44.8500018,11.7000005 43.9500017,11.7000005 C42.6300017,11.7000005 41.8200017,10.8600004 41.8200017,9.51000038 C41.8200017,8.19000033 42.5700017,7.32000029 44.8500018,6.42000026 L45.8100018,6.03000024 L45.8100018,4.80000019 C45.8100018,3.72000015 45.6000018,3.27000013 45.0000018,3.27000013 C44.4900018,3.27000013 44.2200018,3.54000014 43.7400017,4.74000019 L43.2000017,6.09000024 L42.4500017,6.09000024 L42.4500017,3.39000013 C43.4100017,3.09000012 44.4000018,2.91000012 45.2400018,2.91000012 C47.1000019,2.91000012 48.1200019,3.81000015 48.1200019,5.43000022 L48.1200019,10.7700004 Z M45.8100018,9.36000037 L45.8100018,6.51000026 L45.5100018,6.63000026 C44.5500018,7.02000028 44.1600018,7.92000031 44.1600018,9.21000037 C44.1600018,10.1700004 44.4000018,10.7400004 44.9400018,10.7400004 C45.4800018,10.7700004 45.8100018,10.2600004 45.8100018,9.36000037 Z M56.6100022,11.2500004 L56.6100022,11.4900005 L53.6400021,11.4900005 L53.6400021,11.2500004 L53.9700021,10.7400004 L53.9700021,4.83000019 C53.9700021,4.11000016 53.7600021,3.69000015 53.2500021,3.69000015 C52.6500021,3.69000015 52.2000021,4.20000017 52.2000021,5.22000021 L52.2000021,10.7700004 L52.5300021,11.2800004 L52.5300021,11.5200005 L49.560002,11.5200005 L49.560002,11.2800004 L49.890002,10.7700004 L49.890002,4.05000016 L49.560002,3.66000015 L49.560002,3.42000014 L51.9300021,3.15000013 L52.1400021,3.15000013 L52.2000021,4.08000016 C52.4700021,3.36000013 53.1600021,2.97000012 54.1200022,2.97000012 C55.4700022,2.97000012 56.2800022,3.84000015 56.2800022,5.49000022 L56.2800022,10.8000004 L56.6100022,11.2500004 Z" fill="#8C9EB2" fill-rule="nonzero" id="GS-Logo"></path></g></svg>