<svg width="300" height="76" viewBox="0 0 300 76" fill="none" xmlns="http://www.w3.org/2000/svg">
<path d="M290.68 67.6266C288.73 67.6266 286.969 67.1929 285.397 66.3256C283.853 65.4312 282.62 64.2115 281.699 62.6666C280.805 61.1217 280.358 59.3871 280.358 57.4627C280.358 55.5383 280.805 53.8173 281.699 52.2995C282.593 50.7545 283.799 49.5349 285.316 48.6405C286.86 47.746 288.567 47.2988 290.437 47.2988C292.252 47.2988 293.85 47.7189 295.232 48.5591C296.641 49.3994 297.738 50.5513 298.524 52.0149C299.337 53.4785 299.743 55.1453 299.743 57.0155C299.743 57.3407 299.716 57.6795 299.662 58.0319C299.635 58.3571 299.581 58.723 299.499 59.1296H283.487V55.4706H297.183L295.517 56.9342C295.462 55.7416 295.232 54.7388 294.826 53.9257C294.419 53.1126 293.837 52.4892 293.078 52.0555C292.347 51.6219 291.439 51.405 290.355 51.405C289.217 51.405 288.229 51.649 287.389 52.1368C286.549 52.6247 285.899 53.3158 285.438 54.2103C284.977 55.0776 284.747 56.1211 284.747 57.3407C284.747 58.5604 284.991 59.631 285.479 60.5525C285.966 61.4741 286.657 62.1923 287.551 62.7073C288.445 63.1951 289.475 63.4391 290.64 63.4391C291.642 63.4391 292.563 63.2629 293.403 62.9106C294.27 62.5582 295.002 62.0432 295.598 61.3656L298.443 64.2522C297.494 65.3634 296.343 66.2036 294.988 66.7728C293.634 67.342 292.198 67.6266 290.68 67.6266Z" fill="white"/>
<path d="M271.404 67.6266C269.481 67.6266 267.733 67.1794 266.162 66.285C264.618 65.3905 263.398 64.1709 262.504 62.626C261.61 61.081 261.163 59.36 261.163 57.4627C261.163 55.5383 261.61 53.8173 262.504 52.2995C263.398 50.7545 264.618 49.5349 266.162 48.6405C267.733 47.746 269.481 47.2988 271.404 47.2988C272.922 47.2988 274.33 47.597 275.631 48.1932C276.958 48.7624 278.083 49.5891 279.004 50.6732L276.078 53.6411C275.509 52.9635 274.818 52.4621 274.005 52.1368C273.22 51.7845 272.353 51.6083 271.404 51.6083C270.294 51.6083 269.305 51.8658 268.438 52.3808C267.598 52.8686 266.934 53.5462 266.446 54.4135C265.986 55.2809 265.755 56.2972 265.755 57.4627C265.755 58.6011 265.986 59.6175 266.446 60.5119C266.934 61.3792 267.598 62.0703 268.438 62.5853C269.305 63.0732 270.294 63.3171 271.404 63.3171C272.353 63.3171 273.22 63.1545 274.005 62.8292C274.818 62.4769 275.509 61.9619 276.078 61.2843L279.004 64.2522C278.083 65.3363 276.958 66.1765 275.631 66.7728C274.33 67.342 272.922 67.6266 271.404 67.6266Z" fill="white"/>
<path d="M253.623 67.2347V55.9731C253.623 54.6721 253.203 53.6015 252.363 52.7613C251.55 51.9211 250.494 51.501 249.193 51.501C248.326 51.501 247.554 51.6907 246.877 52.0702C246.199 52.4496 245.671 52.9781 245.292 53.6557C244.912 54.3333 244.723 55.1058 244.723 55.9731L242.975 54.9974C242.975 53.5067 243.3 52.1921 243.951 51.0538C244.601 49.8883 245.495 48.9804 246.633 48.3299C247.798 47.6523 249.098 47.3135 250.534 47.3135C251.997 47.3135 253.298 47.6929 254.436 48.4518C255.574 49.1836 256.468 50.1458 257.118 51.3384C257.768 52.5038 258.093 53.7235 258.093 54.9974V67.2347H253.623ZM240.252 67.2347V47.72H244.723V67.2347H240.252Z" fill="white"/>
<path d="M227.821 67.6412C225.87 67.6412 224.109 67.2076 222.537 66.3403C220.993 65.4458 219.76 64.2262 218.839 62.6813C217.945 61.1364 217.498 59.4017 217.498 57.4774C217.498 55.553 217.945 53.8319 218.839 52.3141C219.733 50.7692 220.939 49.5495 222.456 48.6551C224 47.7607 225.707 47.3135 227.577 47.3135C229.392 47.3135 230.99 47.7336 232.372 48.5738C233.781 49.414 234.878 50.5659 235.664 52.0295C236.477 53.4931 236.883 55.16 236.883 57.0301C236.883 57.3554 236.856 57.6942 236.802 58.0465C236.775 58.3718 236.721 58.7377 236.639 59.1442H220.627V55.4852H234.323L232.657 56.9488C232.602 55.7563 232.372 54.7534 231.966 53.9403C231.559 53.1272 230.977 52.5038 230.218 52.0702C229.487 51.6365 228.579 51.4197 227.495 51.4197C226.358 51.4197 225.369 51.6636 224.529 52.1515C223.689 52.6393 223.039 53.3305 222.578 54.2249C222.117 55.0922 221.887 56.1357 221.887 57.3554C221.887 58.5751 222.131 59.6457 222.619 60.5672C223.106 61.4887 223.797 62.207 224.691 62.7219C225.585 63.2098 226.615 63.4537 227.78 63.4537C228.782 63.4537 229.704 63.2775 230.543 62.9252C231.41 62.5729 232.142 62.0579 232.738 61.3803L235.583 64.2668C234.634 65.3781 233.483 66.2183 232.128 66.7875C230.774 67.3566 229.338 67.6412 227.821 67.6412Z" fill="white"/>
<path d="M203.722 75.4977C201.662 75.4977 199.861 75.1183 198.316 74.3593C196.772 73.6275 195.526 72.5841 194.578 71.2289L197.504 68.3017C198.289 69.2774 199.183 70.0092 200.186 70.4971C201.188 70.9849 202.394 71.2289 203.803 71.2289C205.564 71.2289 206.959 70.7681 207.989 69.8466C209.018 68.9522 209.533 67.7189 209.533 66.1469V61.6242L210.305 57.3147L209.533 52.9646V47.72H214.003V66.1469C214.003 68.0171 213.57 69.6433 212.703 71.0256C211.836 72.435 210.63 73.5327 209.086 74.3187C207.542 75.1047 205.753 75.4977 203.722 75.4977ZM203.518 66.8281C201.784 66.8281 200.213 66.408 198.804 65.5678C197.422 64.7005 196.325 63.5215 195.512 62.0308C194.727 60.5401 194.334 58.8732 194.334 57.0301C194.334 55.1871 194.727 53.5338 195.512 52.0702C196.325 50.6066 197.422 49.4547 198.804 48.6145C200.213 47.7471 201.784 47.3135 203.518 47.3135C205.063 47.3135 206.417 47.6252 207.582 48.2486C208.747 48.8719 209.655 49.7393 210.305 50.8505C210.955 51.9347 211.28 53.2085 211.28 54.6721V59.4695C211.28 60.906 210.942 62.1798 210.264 63.2911C209.614 64.4023 208.707 65.2697 207.542 65.8931C206.377 66.5164 205.036 66.8281 203.518 66.8281ZM204.412 62.6C205.496 62.6 206.444 62.3696 207.257 61.9088C208.07 61.448 208.693 60.8111 209.127 59.998C209.587 59.1578 209.817 58.1821 209.817 57.0708C209.817 55.9595 209.587 54.9974 209.127 54.1843C208.693 53.344 208.07 52.6936 207.257 52.2328C206.444 51.772 205.496 51.5417 204.412 51.5417C203.329 51.5417 202.367 51.772 201.527 52.2328C200.714 52.6936 200.077 53.344 199.617 54.1843C199.156 54.9974 198.926 55.9595 198.926 57.0708C198.926 58.1549 199.156 59.1171 199.617 59.9573C200.077 60.7976 200.714 61.448 201.527 61.9088C202.367 62.3696 203.329 62.6 204.412 62.6Z" fill="white"/>
<path d="M186.321 67.2318V47.7172H190.791V67.2318H186.321ZM188.556 44.9635C187.797 44.9635 187.161 44.706 186.646 44.191C186.158 43.676 185.914 43.0391 185.914 42.2802C185.914 41.5213 186.158 40.8843 186.646 40.3694C187.161 39.8544 187.797 39.5969 188.556 39.5969C189.342 39.5969 189.978 39.8544 190.466 40.3694C190.954 40.8843 191.198 41.5213 191.198 42.2802C191.198 43.0391 190.954 43.676 190.466 44.191C189.978 44.706 189.342 44.9635 188.556 44.9635Z" fill="white"/>
<path d="M177.218 67.2777V39.5383H181.885V67.2777H177.218Z" fill="white"/>
<path d="M168.402 67.2777V39.5383H172.795V67.2777H168.402Z" fill="white"/>
<path d="M155.985 67.6412C154.034 67.6412 152.273 67.2076 150.702 66.3403C149.157 65.4458 147.925 64.2262 147.003 62.6813C146.109 61.1364 145.662 59.4017 145.662 57.4774C145.662 55.553 146.109 53.8319 147.003 52.3141C147.897 50.7692 149.103 49.5495 150.62 48.6551C152.165 47.7607 153.872 47.3135 155.741 47.3135C157.556 47.3135 159.155 47.7336 160.536 48.5738C161.945 49.414 163.043 50.5659 163.828 52.0295C164.641 53.4931 165.047 55.16 165.047 57.0301C165.047 57.3554 165.02 57.6942 164.966 58.0465C164.939 58.3718 164.885 58.7377 164.804 59.1442H148.792V55.4852H162.487L160.821 56.9488C160.767 55.7563 160.536 54.7534 160.13 53.9403C159.724 53.1272 159.141 52.5038 158.383 52.0702C157.651 51.6365 156.743 51.4197 155.66 51.4197C154.522 51.4197 153.533 51.6636 152.693 52.1515C151.853 52.6393 151.203 53.3305 150.742 54.2249C150.282 55.0922 150.051 56.1357 150.051 57.3554C150.051 58.5751 150.295 59.6457 150.783 60.5672C151.271 61.4887 151.961 62.207 152.856 62.7219C153.75 63.2098 154.779 63.4537 155.944 63.4537C156.947 63.4537 157.868 63.2775 158.708 62.9252C159.575 62.5729 160.306 62.0579 160.902 61.3803L163.747 64.2668C162.799 65.3781 161.647 66.2183 160.293 66.7875C158.938 67.3566 157.502 67.6412 155.985 67.6412Z" fill="white"/>
<path d="M134.698 67.2427V39.5969H139.168V67.2427H134.698ZM130.024 51.7936V47.728H143.842V51.7936H130.024Z" fill="white"/>
<path d="M123.173 67.2347V55.9731C123.173 54.6721 122.753 53.6015 121.914 52.7613C121.101 51.9211 120.044 51.501 118.744 51.501C117.877 51.501 117.105 51.6907 116.427 52.0702C115.75 52.4496 115.222 52.9781 114.842 53.6557C114.463 54.3333 114.273 55.1058 114.273 55.9731L112.526 54.9974C112.526 53.5067 112.851 52.1921 113.501 51.0538C114.151 49.8883 115.046 48.9804 116.183 48.3299C117.348 47.6523 118.649 47.3135 120.085 47.3135C121.548 47.3135 122.848 47.6929 123.986 48.4518C125.124 49.1836 126.018 50.1458 126.668 51.3384C127.319 52.5038 127.644 53.7235 127.644 54.9974V67.2347H123.173ZM109.803 67.2347V47.72H114.273V67.2347H109.803Z" fill="white"/>
<path d="M100.531 67.2318V47.7172H105.001V67.2318H100.531ZM102.766 44.9635C102.007 44.9635 101.371 44.706 100.856 44.191C100.368 43.676 100.124 43.0391 100.124 42.2802C100.124 41.5213 100.368 40.8843 100.856 40.3694C101.371 39.8544 102.007 39.5969 102.766 39.5969C103.552 39.5969 104.188 39.8544 104.676 40.3694C105.164 40.8843 105.408 41.5213 105.408 42.2802C105.408 43.0391 105.164 43.676 104.676 44.191C104.188 44.706 103.552 44.9635 102.766 44.9635Z" fill="white"/>
<path d="M250.241 28.3198V8.1743C250.241 6.68418 250.566 5.37017 251.217 4.23227C251.894 3.09436 252.815 2.20029 253.98 1.55006C255.172 0.899823 256.54 0.574707 258.085 0.574707C259.277 0.574707 260.293 0.777905 261.133 1.1843C261.972 1.59069 262.758 2.17319 263.49 2.9318L260.604 5.81721C260.279 5.49209 259.927 5.23471 259.548 5.04506C259.168 4.85541 258.681 4.76058 258.085 4.76058C257.001 4.76058 256.161 5.0586 255.565 5.65465C254.996 6.2236 254.712 7.04994 254.712 8.13366V28.3198H250.241ZM245.568 14.7985V10.7346H260.604V14.7985H245.568Z" fill="white"/>
<path d="M233.526 28.7282C231.63 28.7282 229.909 28.2812 228.365 27.3871C226.821 26.466 225.588 25.2332 224.667 23.6889C223.773 22.1446 223.326 20.4242 223.326 18.5277C223.326 16.6312 223.773 14.9243 224.667 13.4071C225.588 11.8899 226.821 10.6843 228.365 9.79019C229.909 8.86903 231.63 8.40845 233.526 8.40845C235.45 8.40845 237.184 8.85548 238.728 9.74955C240.272 10.6436 241.492 11.8628 242.386 13.4071C243.307 14.9243 243.767 16.6312 243.767 18.5277C243.767 20.4242 243.307 22.1446 242.386 23.6889C241.492 25.2332 240.272 26.466 238.728 27.3871C237.184 28.2812 235.45 28.7282 233.526 28.7282ZM233.526 24.4204C234.637 24.4204 235.612 24.1766 236.452 23.6889C237.319 23.1742 237.983 22.4697 238.444 21.5757C238.931 20.6816 239.175 19.6656 239.175 18.5277C239.175 17.3898 238.931 16.3873 238.444 15.5204C237.956 14.6534 237.292 13.9761 236.452 13.4884C235.612 12.9736 234.637 12.7162 233.526 12.7162C232.443 12.7162 231.467 12.9736 230.6 13.4884C229.76 13.9761 229.097 14.6534 228.609 15.5204C228.148 16.3873 227.918 17.3898 227.918 18.5277C227.918 19.6656 228.148 20.6816 228.609 21.5757C229.097 22.4697 229.76 23.1742 230.6 23.6889C231.467 24.1766 232.443 24.4204 233.526 24.4204Z" fill="white"/>
<path d="M206.389 28.7282C205.305 28.7282 204.262 28.5928 203.26 28.3218C202.257 28.0238 201.336 27.6174 200.496 27.1026C199.657 26.5608 198.925 25.9105 198.302 25.1519L201.147 22.3072C201.824 23.0929 202.596 23.6889 203.463 24.0953C204.357 24.4746 205.36 24.6643 206.47 24.6643C207.473 24.6643 208.231 24.5153 208.746 24.2172C209.261 23.9192 209.518 23.4857 209.518 22.9168C209.518 22.3207 209.275 21.8601 208.787 21.535C208.299 21.2099 207.663 20.939 206.877 20.7222C206.118 20.4784 205.305 20.2346 204.438 19.9907C203.599 19.7469 202.786 19.4218 202 19.0154C201.241 18.5819 200.618 17.9994 200.131 17.2679C199.643 16.5364 199.399 15.5881 199.399 14.4231C199.399 13.1768 199.684 12.1066 200.253 11.2126C200.849 10.3185 201.675 9.62763 202.732 9.13996C203.815 8.65228 205.102 8.40845 206.592 8.40845C208.164 8.40845 209.545 8.69292 210.738 9.26188C211.957 9.80374 212.973 10.6301 213.786 11.7409L210.941 14.5857C210.372 13.8812 209.722 13.3529 208.99 13.0007C208.259 12.6485 207.419 12.4724 206.47 12.4724C205.576 12.4724 204.885 12.6079 204.398 12.8788C203.91 13.1497 203.666 13.5426 203.666 14.0573C203.666 14.5992 203.91 15.0191 204.398 15.3172C204.885 15.6152 205.509 15.8726 206.267 16.0893C207.053 16.3061 207.866 16.5499 208.706 16.8208C209.573 17.0647 210.385 17.4169 211.144 17.8775C211.93 18.311 212.566 18.907 213.054 19.6656C213.542 20.3971 213.786 21.3589 213.786 22.551C213.786 24.4475 213.122 25.9512 211.794 27.062C210.467 28.1728 208.665 28.7282 206.389 28.7282Z" fill="white"/>
<path d="M192.409 28.3199L184.159 18.3632L192.368 8.81287H197.692L188.263 19.5417L188.467 16.9814L198.098 28.3199H192.409ZM180.013 28.3199V0.574707H184.484V28.3199H180.013Z" fill="white"/>
<path d="M163.087 28.3218V8.81484H167.557V28.3218H163.087ZM167.557 17.4711L166.013 16.6989C166.013 14.2334 166.555 12.2421 167.638 10.7249C168.749 9.1806 170.415 8.40845 172.637 8.40845C173.612 8.40845 174.493 8.58455 175.279 8.93676C176.064 9.28897 176.796 9.85792 177.473 10.6436L174.547 13.6509C174.195 13.2716 173.802 13.0007 173.369 12.8382C172.935 12.6756 172.434 12.5943 171.865 12.5943C170.619 12.5943 169.589 12.9872 168.776 13.7729C167.964 14.5586 167.557 15.7913 167.557 17.4711Z" fill="white"/>
<path d="M148.227 28.7282C146.466 28.7282 144.867 28.2812 143.431 27.3871C142.022 26.493 140.898 25.2874 140.058 23.7702C139.245 22.2259 138.839 20.5055 138.839 18.609C138.839 16.6854 139.245 14.965 140.058 13.4478C140.898 11.9034 142.022 10.6843 143.431 9.79019C144.867 8.86903 146.466 8.40845 148.227 8.40845C149.717 8.40845 151.031 8.73356 152.169 9.3838C153.334 10.0069 154.255 10.8739 154.932 11.9847C155.61 13.0955 155.948 14.3554 155.948 15.7642V21.3725C155.948 22.7813 155.61 24.0411 154.932 25.1519C154.282 26.2628 153.374 27.1433 152.209 27.7935C151.044 28.4167 149.717 28.7282 148.227 28.7282ZM148.958 24.5017C150.611 24.5017 151.938 23.9463 152.941 22.8355C153.97 21.7247 154.485 20.3023 154.485 18.5683C154.485 17.4033 154.255 16.3738 153.794 15.4797C153.334 14.5857 152.683 13.8948 151.844 13.4071C151.031 12.8923 150.069 12.635 148.958 12.635C147.874 12.635 146.913 12.8923 146.073 13.4071C145.26 13.8948 144.61 14.5857 144.122 15.4797C143.662 16.3738 143.431 17.4033 143.431 18.5683C143.431 19.7333 143.662 20.7629 144.122 21.6569C144.61 22.551 145.26 23.2554 146.073 23.7702C146.913 24.2579 147.874 24.5017 148.958 24.5017ZM154.201 28.3218V23.0793L154.973 18.3245L154.201 13.6103V8.81484H158.671V28.3218H154.201Z" fill="white"/>
<path d="M126.836 28.7282C125.346 28.7282 124.019 28.4167 122.854 27.7935C121.689 27.1433 120.768 26.2628 120.09 25.1519C119.44 24.0411 119.115 22.7813 119.115 21.3725V15.7642C119.115 14.3554 119.454 13.0955 120.131 11.9847C120.808 10.8739 121.729 10.0069 122.894 9.3838C124.059 8.73356 125.373 8.40845 126.836 8.40845C128.598 8.40845 130.182 8.86903 131.591 9.79019C133.027 10.6843 134.152 11.9034 134.964 13.4478C135.804 14.965 136.224 16.6854 136.224 18.609C136.224 20.5055 135.804 22.2259 134.964 23.7702C134.152 25.2874 133.027 26.493 131.591 27.3871C130.182 28.2812 128.598 28.7282 126.836 28.7282ZM126.105 24.5017C127.189 24.5017 128.137 24.2579 128.95 23.7702C129.79 23.2554 130.44 22.551 130.9 21.6569C131.388 20.7629 131.632 19.7333 131.632 18.5683C131.632 17.4033 131.388 16.3738 130.9 15.4797C130.44 14.5857 129.79 13.8948 128.95 13.4071C128.137 12.8923 127.189 12.635 126.105 12.635C125.021 12.635 124.059 12.8923 123.22 13.4071C122.38 13.8948 121.729 14.5857 121.269 15.4797C120.808 16.3738 120.578 17.4033 120.578 18.5683C120.578 19.7333 120.808 20.7629 121.269 21.6569C121.729 22.551 122.38 23.2554 123.22 23.7702C124.059 24.2579 125.021 24.5017 126.105 24.5017ZM116.392 36.5412V8.81484H120.862V14.0573L120.09 18.8122L120.862 23.5264V36.5412H116.392Z" fill="white"/>
<path d="M105.225 28.7282C104.141 28.7282 103.098 28.5928 102.095 28.3218C101.093 28.0238 100.172 27.6174 99.3319 27.1026C98.492 26.5608 97.7605 25.9105 97.1373 25.1519L99.9821 22.3072C100.659 23.0929 101.432 23.6889 102.299 24.0953C103.193 24.4746 104.195 24.6643 105.306 24.6643C106.308 24.6643 107.067 24.5153 107.582 24.2172C108.096 23.9192 108.354 23.4857 108.354 22.9168C108.354 22.3207 108.11 21.8601 107.622 21.535C107.135 21.2099 106.498 20.939 105.712 20.7222C104.954 20.4784 104.141 20.2346 103.274 19.9907C102.434 19.7469 101.621 19.4218 100.836 19.0154C100.077 18.5819 99.4538 17.9994 98.9661 17.2679C98.4784 16.5364 98.2346 15.5881 98.2346 14.4231C98.2346 13.1768 98.5191 12.1066 99.088 11.2126C99.6841 10.3185 100.51 9.62763 101.567 9.13996C102.651 8.65228 103.938 8.40845 105.428 8.40845C106.999 8.40845 108.381 8.69292 109.573 9.26188C110.792 9.80374 111.808 10.6301 112.621 11.7409L109.776 14.5857C109.207 13.8812 108.557 13.3529 107.826 13.0007C107.094 12.6485 106.254 12.4724 105.306 12.4724C104.412 12.4724 103.721 12.6079 103.233 12.8788C102.746 13.1497 102.502 13.5426 102.502 14.0573C102.502 14.5992 102.746 15.0191 103.233 15.3172C103.721 15.6152 104.344 15.8726 105.103 16.0893C105.888 16.3061 106.701 16.5499 107.541 16.8208C108.408 17.0647 109.221 17.4169 109.979 17.8775C110.765 18.311 111.402 18.907 111.889 19.6656C112.377 20.3971 112.621 21.3589 112.621 22.551C112.621 24.4475 111.957 25.9512 110.63 27.062C109.302 28.1728 107.5 28.7282 105.225 28.7282Z" fill="white"/>
<path fill-rule="evenodd" clip-rule="evenodd" d="M3.05093 10.7584C1.00931 14.7653 1.00931 20.0106 1.00931 30.5013V37.9939V45.4865C1.00931 55.9772 1.00931 61.2225 3.05093 65.2294C4.84679 68.754 7.71235 71.6196 11.2369 73.4154C15.2438 75.4571 20.4892 75.4571 30.9798 75.4571H38.4725H45.9651C56.4557 75.4571 61.7011 75.4571 65.708 73.4154C69.2326 71.6196 72.0981 68.754 73.894 65.2294C75.9356 61.2225 75.9356 55.9772 75.9356 45.4865V37.9939V30.5013C75.9356 20.0106 75.9356 14.7653 73.894 10.7584C72.0981 7.23381 69.2326 4.36824 65.708 2.57238C61.7011 0.530762 56.4557 0.530762 45.9651 0.530762H38.4725H30.9798C20.4892 0.530762 15.2438 0.530762 11.2369 2.57238C7.71235 4.36824 4.84679 7.23381 3.05093 10.7584ZM38.4725 0.530762C38.4725 21.2211 55.2453 37.9939 75.9356 37.9939C55.2453 37.9939 38.4725 54.7667 38.4725 75.4571C38.4725 54.7667 21.6996 37.9939 1.00931 37.9939C21.6996 37.9939 38.4725 21.2211 38.4725 0.530762Z" fill="url(#paint0_linear_6798_433)"/>
<defs>
<linearGradient id="paint0_linear_6798_433" x1="4.45592" y1="72.0104" x2="70.5409" y2="5.92546" gradientUnits="userSpaceOnUse">
<stop stop-color="#A01AF8"/>
<stop offset="0.499263" stop-color="#FB0F42"/>
<stop offset="1" stop-color="#FFB647"/>
</linearGradient>
</defs>
</svg>
