<svg width="102" height="100" viewBox="0 0 102 100" fill="none" xmlns="http://www.w3.org/2000/svg">
<path fill-rule="evenodd" clip-rule="evenodd" d="M1 20C1 20.5523 1.44772 21 2 21C1.44772 21 1 21.4477 1 22C1 21.4477 0.552285 21 0 21C0.552285 21 1 20.5523 1 20Z" fill="url(#paint0_linear_6798_444)"/>
<path fill-rule="evenodd" clip-rule="evenodd" d="M13 10.5C13 11.3284 13.6716 12 14.5 12C13.6716 12 13 12.6716 13 13.5C13 12.6716 12.3284 12 11.5 12C12.3284 12 13 11.3284 13 10.5Z" fill="url(#paint1_linear_6798_444)"/>
<path fill-rule="evenodd" clip-rule="evenodd" d="M5.5 0C5.5 0.276142 5.72386 0.5 6 0.5C5.72386 0.5 5.5 0.723858 5.5 1C5.5 0.723858 5.27614 0.5 5 0.5C5.27614 0.5 5.5 0.276142 5.5 0Z" fill="url(#paint2_linear_6798_444)"/>
<path fill-rule="evenodd" clip-rule="evenodd" d="M6.5 90C6.5 90.8284 7.17157 91.5 8 91.5C7.17157 91.5 6.5 92.1716 6.5 93C6.5 92.1716 5.82843 91.5 5 91.5C5.82843 91.5 6.5 90.8284 6.5 90Z" fill="#A71AEB"/>
<path fill-rule="evenodd" clip-rule="evenodd" d="M90.5 14C90.5 14.2761 90.7239 14.5 91 14.5C90.7239 14.5 90.5 14.7239 90.5 15C90.5 14.7239 90.2761 14.5 90 14.5C90.2761 14.5 90.5 14.2761 90.5 14Z" fill="#FFAB47"/>
<path fill-rule="evenodd" clip-rule="evenodd" d="M101.5 10C101.5 10.2761 101.724 10.5 102 10.5C101.724 10.5 101.5 10.7239 101.5 11C101.5 10.7239 101.276 10.5 101 10.5C101.276 10.5 101.5 10.2761 101.5 10Z" fill="#FFAB47"/>
<path fill-rule="evenodd" clip-rule="evenodd" d="M98.5 29C98.5 29.2761 98.7239 29.5 99 29.5C98.7239 29.5 98.5 29.7239 98.5 30C98.5 29.7239 98.2761 29.5 98 29.5C98.2761 29.5 98.5 29.2761 98.5 29Z" fill="#FE8646"/>
<path fill-rule="evenodd" clip-rule="evenodd" d="M96.5 67C96.5 67.2761 96.7239 67.5 97 67.5C96.7239 67.5 96.5 67.7239 96.5 68C96.5 67.7239 96.2761 67.5 96 67.5C96.2761 67.5 96.5 67.2761 96.5 67Z" fill="#FD4A44"/>
<path fill-rule="evenodd" clip-rule="evenodd" d="M18 98C18 98.5523 18.4477 99 19 99C18.4477 99 18 99.4477 18 100C18 99.4477 17.5523 99 17 99C17.5523 99 18 98.5523 18 98Z" fill="#A71AEB"/>
<path fill-rule="evenodd" clip-rule="evenodd" d="M7.5 61.5C7.5 62.0523 7.94772 62.5 8.5 62.5C7.94772 62.5 7.5 62.9477 7.5 63.5C7.5 62.9477 7.05228 62.5 6.5 62.5C7.05228 62.5 7.5 62.0523 7.5 61.5Z" fill="#C716AC"/>
<path fill-rule="evenodd" clip-rule="evenodd" d="M89 93C89 93.5523 89.4477 94 90 94C89.4477 94 89 94.4477 89 95C89 94.4477 88.5523 94 88 94C88.5523 94 89 93.5523 89 93Z" fill="#F7104A"/>
<path fill-rule="evenodd" clip-rule="evenodd" d="M99.5 86C99.5 86.2761 99.7239 86.5 100 86.5C99.7239 86.5 99.5 86.7239 99.5 87C99.5 86.7239 99.2761 86.5 99 86.5C99.2761 86.5 99.5 86.2761 99.5 86Z" fill="#FD4444"/>
<path fill-rule="evenodd" clip-rule="evenodd" d="M79.5 4C79.5 4.27614 79.7239 4.5 80 4.5C79.7239 4.5 79.5 4.72386 79.5 5C79.5 4.72386 79.2761 4.5 79 4.5C79.2761 4.5 79.5 4.27614 79.5 4Z" fill="#FFAB47"/>
<defs>
<linearGradient id="paint0_linear_6798_444" x1="-0.812" y1="22.816" x2="2.716" y2="19.288" gradientUnits="userSpaceOnUse">
<stop stop-color="#A01AF8"/>
<stop offset="0.499263" stop-color="#FB0F42"/>
<stop offset="1" stop-color="#FFB647"/>
</linearGradient>
<linearGradient id="paint1_linear_6798_444" x1="10.282" y1="14.724" x2="15.574" y2="9.432" gradientUnits="userSpaceOnUse">
<stop stop-color="#A01AF8"/>
<stop offset="0.499263" stop-color="#FB0F42"/>
<stop offset="1" stop-color="#FFB647"/>
</linearGradient>
<linearGradient id="paint2_linear_6798_444" x1="4.594" y1="1.408" x2="6.358" y2="-0.356" gradientUnits="userSpaceOnUse">
<stop stop-color="#A01AF8"/>
<stop offset="0.499263" stop-color="#FB0F42"/>
<stop offset="1" stop-color="#FFB647"/>
</linearGradient>
</defs>
</svg>
