<svg width="100" height="45" viewBox="0 0 100 45" fill="none" xmlns="http://www.w3.org/2000/svg">
<path d="M26.4123 21.1252C22.8462 21.1252 22.5629 18.409 22.5629 17.6091C22.5629 16.6593 22.7795 14.8929 25.0958 14.0431C27.4121 13.1932 27.912 13.0932 29.5617 12.5766V12.1767C29.5617 11.3768 29.5617 11.2269 29.3784 10.7103C29.0951 9.79377 28.1953 9.1772 26.9455 9.1772C25.7624 9.1772 24.7459 9.84376 24.2793 10.8269L23.6127 10.427C24.0127 8.96057 25.5291 7.49415 28.1286 7.49415C29.9283 7.49415 31.1781 8.01073 31.9113 9.14388C32.4613 10.0604 32.5279 11.2935 32.5279 12.5433C32.5279 13.6765 32.4613 14.9262 32.4613 15.9427C32.4613 16.6093 32.3946 17.2592 32.3946 17.6258C32.3946 18.5423 32.5779 19.2755 33.3111 19.2755C33.6444 19.2755 33.711 19.1589 33.9777 18.9922L34.3776 19.5088C33.711 20.4253 32.9112 21.1585 31.5947 21.1585C30.5782 21.1585 29.845 20.642 29.5451 19.8088C29.1285 20.392 28.0453 21.1252 26.4123 21.1252ZM29.5617 14.2097C27.812 14.7263 27.1788 15.0096 26.6789 15.2762C25.879 15.6761 25.5457 16.4093 25.5457 17.3592C25.5457 18.0924 25.829 19.2755 27.5287 19.2755C28.0787 19.2755 28.8785 19.1589 29.6117 18.659V14.193H29.5617V14.2097ZM0.116647 20.4253C0.116647 19.1089 0.116647 17.9924 0 16.6426H0.799867C0.799867 17.4925 1.0165 18.1091 1.41643 18.509C1.96634 19.1255 3.28279 19.5255 4.46592 19.5255C6.94884 19.5255 8.13198 18.5756 8.13198 16.526C8.13198 14.7763 7.06549 14.0431 5.59907 13.0099L5.38244 12.8266L3.79937 11.7601C1.59973 10.2937 0.466589 9.16054 0.466589 6.84426C0.466589 5.71112 0.916514 1.9784 6.39893 1.9784C7.81536 1.9784 9.61506 2.16171 10.6982 2.31168C10.6982 2.49499 10.6316 3.32818 10.6316 4.06139C10.6316 4.91125 10.6316 5.12788 10.6982 6.14438H10.0317C10.0317 5.22786 9.74837 4.67796 9.36511 4.27802C8.84852 3.76144 7.68205 3.47815 6.43226 3.47815C3.49942 3.47815 3.16614 4.94458 3.16614 6.07772C3.16614 7.6108 3.96601 8.16071 5.69905 9.29385L7.68205 10.6103C9.36511 11.7434 10.9482 12.8099 10.9482 15.6428C10.9482 20.392 6.48225 20.8919 4.6159 20.8919C2.89952 21.1252 1.46642 20.8753 0.116647 20.4253ZM35.6107 8.34401C36.2773 8.41066 37.2938 8.34401 38.277 8.16071C39.1268 7.97741 39.4101 7.87742 40.0267 7.6108L40.3099 7.7941V8.8106C40.9765 8.29402 42.2929 7.56081 44.1593 7.56081C46.5422 7.56081 48.0753 8.69395 48.5086 10.677C48.6252 11.1935 48.6919 12.36 48.6919 13.0599V16.9092C48.6919 19.0589 48.8085 19.6921 49.2085 20.0754C49.4251 20.2587 49.875 20.4753 50.5249 20.4753V21.0919C49.6751 21.0252 48.142 20.9752 47.2588 20.9752C46.0757 20.9752 44.7259 21.0419 43.9927 21.0919V20.4753C44.6592 20.4087 45.0592 20.192 45.3091 20.0254C45.709 19.6255 45.759 18.8923 45.8257 17.2425C45.8257 16.7259 45.8924 15.7094 45.8924 14.9762C45.8924 14.0264 45.8923 12.9932 45.7757 11.9767C45.5924 10.2937 44.7092 9.49382 42.9928 9.49382C41.8097 9.49382 41.0765 9.7771 40.5099 10.0437V16.9426C40.5099 19.0922 40.6266 19.7254 41.0265 20.1087C41.2431 20.292 41.7597 20.5087 42.2763 20.5087V21.1252C41.2098 21.0586 39.8933 21.0086 39.0602 21.0086C37.3104 21.0086 36.7439 21.0752 35.7274 21.1252V20.4753C36.2773 20.4753 36.8605 20.2587 37.1438 19.9254C37.5437 19.4755 37.5937 18.3423 37.5937 16.1427V12.2267C37.5937 10.577 37.5271 9.91042 37.3104 9.56047C37.1271 9.27719 36.6939 9.04389 35.7774 9.04389V8.31068H35.6607V8.34401H35.6107ZM51.958 20.392C52.5079 20.392 53.0912 20.2087 53.3744 19.8421C53.7744 19.3922 53.8244 18.259 53.8244 16.0594V9.47715H52.1413V8.74394C52.8745 8.46066 53.4911 8.12738 53.8244 7.82743C53.8244 6.64429 53.891 5.16121 54.041 4.31135C54.5576 1.59514 56.3073 0.245361 59.2901 0.245361C60.6066 0.245361 61.823 0.695285 62.6229 1.31185L62.6895 1.59513L61.3731 3.39484H61.0398C60.5899 2.32835 59.9067 1.71178 58.7235 1.71178C58.3236 1.71178 57.7737 1.82843 57.4071 2.16171C56.8572 2.71162 56.7405 3.57814 56.7405 5.27786V7.81077H59.6734V9.46049H56.7405V16.7593C56.7405 18.509 56.8072 19.3588 57.0238 19.6921C57.3571 20.242 58.5569 20.3087 59.1068 20.3087V20.9752C58.157 20.9086 56.6239 20.8586 55.5407 20.8586C53.891 20.8586 52.8245 20.9252 51.9747 20.9752L51.958 20.392ZM67.1055 21.2252C63.1061 21.2252 60.7232 18.7423 60.7232 14.5596C60.7232 11.2935 62.4729 7.49415 67.3888 7.49415C71.3881 7.49415 73.771 9.97707 73.771 14.1597C73.771 17.4258 72.0047 21.2252 67.1055 21.2252ZM67.2721 9.01056C66.4723 9.01056 65.8557 9.22719 65.4058 9.62713C64.3393 10.5436 63.8227 12.1101 63.8227 14.4263C63.8227 15.3428 64.006 19.7421 67.2221 19.7421C68.022 19.7421 68.6386 19.5255 69.0885 19.1255C70.155 18.209 70.6716 16.6426 70.6716 14.3263C70.6549 13.4265 70.5049 9.01056 67.2721 9.01056ZM75.1208 8.27735C76.0373 8.34401 76.9872 8.2107 78.0037 8.06072C78.8035 7.94408 79.3201 7.77744 79.5867 7.6108L79.8034 7.72745V8.86059C80.4199 8.24403 81.4531 7.6108 82.8529 7.6108C83.8694 7.6108 84.5359 7.89409 85.1691 8.41067V8.8106L84.036 10.8603H83.4861C83.1528 10.2437 82.4696 9.67712 81.2864 9.67712C80.7365 9.67712 80.27 9.79377 79.87 10.0771V16.8093C79.87 18.559 79.9367 19.3422 80.1533 19.6921C80.4866 20.242 81.6197 20.3087 82.2363 20.242V20.9752C81.3198 20.9086 79.7534 20.8586 78.6702 20.8586C77.4204 20.8586 76.1373 20.8586 75.1041 20.9752V20.3087C75.8374 20.242 76.2373 20.0921 76.5206 19.7588C76.9205 19.3089 76.9705 18.2257 76.9705 15.9761V12.31C76.9705 10.6603 76.9705 9.99373 76.6872 9.64379C76.4706 9.36051 76.0207 9.19387 75.1541 9.19387V8.34401L75.1208 8.27735ZM93.6177 1.04523C94.4176 1.04523 95.4174 0.861924 96.7339 0.645294C97.4671 0.528646 97.917 0.362008 98.1503 0.312016L98.3669 0.428663C98.2503 1.49515 98.2503 3.94474 98.2503 5.67779V16.4093C98.2503 17.9924 98.2503 19.0089 98.4669 19.3422C98.6835 19.6255 99.1335 19.8588 100 19.8588V20.5253C99.1501 20.5253 98.2003 20.642 97.1838 20.8086C96.5172 20.9252 96.0007 21.0252 95.7174 21.1419L95.3841 21.0252V19.8921C94.7175 20.4087 93.4678 21.1419 91.718 21.1419C88.102 21.1419 85.7857 18.659 85.7857 14.7596C85.7857 13.4432 86.0023 12.2767 86.4522 11.1935C87.5854 8.8106 89.8517 7.46082 92.7179 7.46082C93.7844 7.46082 94.7009 7.57747 95.2508 7.67745V4.89459C95.2508 3.24486 95.2508 2.41167 94.9675 2.01173C94.7842 1.72845 94.5176 1.6118 93.5511 1.56181V1.02856H93.6177V1.04523ZM93.1511 19.2922C94.0676 19.2922 94.6842 19.1755 95.3008 18.7756V9.97707C95.0841 9.76044 94.2843 9.06056 92.7012 9.06056C90.1683 9.06056 88.9185 10.8103 88.9185 14.443C88.8685 15.9594 89.3184 19.2922 93.1511 19.2922ZM21.2631 19.6921C20.8632 20.2087 19.8467 21.2252 17.697 21.2252C15.6474 21.2252 14.5309 20.492 14.031 18.8423C13.8144 18.2257 13.8144 16.9259 13.8144 16.176C13.8144 14.0931 13.8144 12.3933 13.881 10.4103V9.49382H12.1146V8.97724C12.7812 8.69395 13.2978 8.42733 13.7644 8.06072C14.7809 7.26086 15.4474 6.31102 16.1973 4.89459H16.7472V7.82743H21.2131V9.47715H16.7472V16.376C16.7472 18.459 17.1471 19.5921 19.0635 19.5921C19.98 19.5921 20.5966 19.3088 20.9298 19.0756L21.2631 19.6921Z" fill="#8C1515"/>
<path d="M83.9026 32.0233C83.686 32.0233 83.386 32.09 83.236 32.24C83.0527 32.3566 83.0527 32.5232 83.0527 32.6399C83.0527 32.8565 83.1194 33.0398 83.2694 33.4898L84.5191 36.7559C84.7025 37.2725 84.8524 37.6724 84.9191 37.939L86.4522 33.4731C86.6355 32.9565 86.6688 32.8565 86.6688 32.6232C86.6688 32.5066 86.6021 32.4066 86.4855 32.29C86.3022 32.1733 86.0856 32.0733 85.8189 32.0733V31.5567C86.0022 31.5567 86.3688 31.5567 86.5521 31.6234C86.7354 31.6234 87.0687 31.6901 87.352 31.6901C87.9019 31.6901 88.7018 31.6234 89.0351 31.6234V32.14C88.8184 32.2066 88.3019 32.0733 87.8519 33.3898L84.6358 41.9717C84.1859 43.2215 83.5693 44.7545 81.3697 44.7545C80.4532 44.7545 79.8366 44.5379 79.32 44.088V43.8714L80.1199 42.9215H80.3365C80.5531 43.4381 81.0031 43.6547 81.653 43.6547C82.6695 43.6547 83.1194 42.7382 83.8026 40.9385L83.9859 40.4219L81.2864 33.3731C81.2864 33.3064 81.2197 33.1898 81.1697 33.0898C81.1031 32.9065 80.9531 32.5732 80.9531 32.5732C80.7698 32.24 80.5031 32.1233 80.1532 32.1233V31.6067C80.6698 31.6734 81.5696 31.6734 82.0196 31.6734C82.3029 31.6734 82.7528 31.6734 83.2027 31.6067C83.4193 31.6067 83.8193 31.5401 84.0026 31.5401V31.99H83.9359V32.0233H83.9026ZM53.9742 31.9067C54.5242 31.9733 55.1574 31.84 55.7739 31.7234C56.2905 31.6067 56.5738 31.5401 56.7904 31.4401L56.9737 31.5068V32.24C57.3737 31.84 57.9902 31.4401 58.8901 31.4401C59.5566 31.4401 59.9566 31.6234 60.3565 31.9567V32.24L59.69 33.5564H59.3567C59.14 33.1565 58.7401 32.8232 57.9402 32.8232C57.607 32.8232 57.3237 32.9398 57.0237 33.1065V37.3558C57.0237 38.4889 57.0904 39.0055 57.207 39.2221C57.4237 39.5554 58.1235 39.6221 58.5235 39.6221V40.072C57.9736 40.0053 56.9404 40.0053 56.2572 40.0053C55.4573 40.0053 54.6075 40.0053 53.9909 40.122V39.6721C54.4408 39.6721 54.7241 39.4888 54.9074 39.3388C55.1907 39.0555 55.1907 38.3889 55.1907 36.9059V34.5229C55.1907 33.5064 55.1907 33.0565 55.0074 32.8399C54.8908 32.6566 54.5575 32.5566 54.0576 32.5566V31.94H53.9742V31.9067ZM16.3472 40.1053C13.9642 40.1053 12.5645 39.3721 12.0479 37.789C11.7646 36.9892 11.7646 35.9893 11.7646 35.1895V30.6736C11.7646 29.3238 11.698 29.0905 11.4313 28.8739C11.3147 28.7572 11.0314 28.6572 10.6315 28.5906V28.1406C11.1814 28.2073 12.1645 28.2573 12.7145 28.2573C13.6643 28.2573 14.2475 28.2573 14.8641 28.1406V28.6572C14.4642 28.6572 14.1975 28.7739 13.9476 28.9905C13.6643 29.2738 13.6643 29.7904 13.6643 31.2568V35.2561C13.6643 37.6391 13.8809 39.1721 16.5472 39.1721C19.2634 39.1721 19.43 37.5891 19.43 35.1728V30.7735C19.43 29.4238 19.3633 29.1905 19.0967 28.9738C18.9134 28.8572 18.6468 28.7572 18.2969 28.6906V28.2406C18.8134 28.2406 19.48 28.3073 20.1632 28.3073C20.7798 28.3073 21.413 28.3073 22.1462 28.1906V28.7072C21.7463 28.7072 21.4797 28.8239 21.2297 29.0405C20.9464 29.3238 20.9464 29.8404 20.9464 31.3068V34.7062C20.9464 35.7727 20.9464 36.9725 20.6131 37.9223C20.0799 39.3721 18.7135 40.1053 16.3472 40.1053ZM32.4612 39.5887C32.9111 39.5221 33.1944 39.4721 33.411 39.2555C33.6943 38.9722 33.6943 38.3056 33.6943 36.8225V34.4396C33.6943 33.4231 33.6943 32.9065 33.511 32.6899C33.3943 32.5066 33.1777 32.4066 32.5611 32.3566V31.84C32.8944 31.9067 33.8109 31.7734 34.4775 31.6567C34.8108 31.5901 35.1441 31.4734 35.394 31.3734L35.5773 31.5567C35.5107 32.1067 35.5107 33.3065 35.5107 34.8895V37.3224C35.5107 38.4556 35.5773 38.9722 35.694 39.1888C35.8773 39.4054 36.2105 39.5887 36.7105 39.5887V39.9887C36.2605 39.922 35.394 39.922 34.6608 39.922C33.8109 39.922 32.9111 39.9887 32.4612 40.0387V39.5887ZM34.5441 29.9237C33.8776 29.9237 33.4777 29.5237 33.4777 28.9072C33.4777 28.2906 33.9276 27.8407 34.6108 27.8407C35.2774 27.8407 35.6773 28.2406 35.6773 28.8572C35.6606 29.5237 35.2107 29.9237 34.5441 29.9237ZM68.1885 39.5887C68.6385 39.5221 68.9218 39.4721 69.1384 39.2555C69.4217 38.9722 69.4217 38.3056 69.4217 36.8225V34.4396C69.4217 33.4231 69.4217 32.9065 69.2384 32.6899C69.1217 32.5066 68.9051 32.4066 68.2885 32.3566V31.84C68.6218 31.9067 69.5383 31.7734 70.2049 31.6567C70.5381 31.5901 70.9381 31.4734 71.1214 31.3734L71.3047 31.5567C71.238 32.1067 71.238 33.3065 71.238 34.8895V37.3224C71.238 38.4556 71.3047 38.9722 71.4213 39.1888C71.6046 39.4054 71.9379 39.5887 72.4378 39.5887V39.9887C71.9212 39.922 71.0881 39.922 70.3548 39.922C69.505 39.922 68.6051 39.9887 68.1552 40.0387V39.5887H68.1885ZM70.2715 29.9237C69.605 29.9237 69.205 29.5237 69.205 28.9072C69.205 28.2906 69.655 27.8407 70.3382 27.8407C71.0047 27.8407 71.4047 28.2406 71.4047 28.8572C71.4047 29.5237 70.9381 29.9237 70.2715 29.9237ZM61.3397 39.7054C61.3397 38.8555 61.273 37.9557 61.223 37.5058H61.7729C61.7729 37.9557 61.8896 38.3556 62.1062 38.5722C62.4395 38.9722 62.8394 39.1221 63.5726 39.1221H63.6893C64.6058 39.1221 65.1057 38.7222 65.1057 37.939C65.1057 37.3224 64.7058 37.0225 64.0392 36.6226L62.8561 35.8894C62.2395 35.4894 61.5063 34.9395 61.5063 33.7397C61.5063 32.7899 61.9063 32.0567 62.6895 31.6567C63.206 31.3734 64.0059 31.3734 64.3725 31.3734C65.0391 31.3734 66.0222 31.4901 66.5721 31.5901C66.5055 31.8067 66.5055 32.3899 66.5055 32.6066C66.5055 32.7899 66.5055 33.5564 66.5721 33.7397H66.0222C66.0222 33.4064 65.9056 33.0732 65.689 32.7899C65.4723 32.5066 64.9557 32.3399 64.3392 32.3399C63.4893 32.3399 63.0227 32.6732 63.0227 33.4064C63.0227 33.9563 63.4727 34.2563 63.8726 34.5396H63.9392L65.0724 35.2061C65.8056 35.6561 66.7554 36.2226 66.7554 37.5224C66.7554 39.722 64.7058 40.0553 63.5393 40.0553C62.8728 40.0387 62.1395 39.9887 61.3397 39.7054ZM79.0867 39.1555C78.8034 39.4388 78.1702 40.1053 76.8204 40.1053C75.504 40.1053 74.7708 39.6554 74.5042 38.5722C74.3875 38.1723 74.3875 37.3224 74.3875 36.8892C74.3875 35.5394 74.3875 34.4563 74.3875 33.2231V32.6732H73.2544V32.3399C73.7043 32.1566 73.9876 32.0067 74.3208 31.79C74.9374 31.2735 75.3873 30.6569 75.9039 29.7404H76.3039V31.6067H79.12V32.6232H76.3039V37.0225C76.3039 38.3389 76.5205 39.1055 77.7703 39.1055C78.3202 39.1055 78.7201 38.9222 78.9534 38.7722L79.0867 39.1555ZM40.8598 31.5734C40.6765 31.5734 40.3099 31.5734 40.0599 31.6401C39.61 31.6401 39.1434 31.7067 38.8101 31.7067C38.1935 31.7067 37.277 31.6401 37.0104 31.6401V32.1566C37.127 32.1566 37.5603 32.09 37.8603 32.6732C37.9769 32.8899 38.0436 33.0732 38.0769 33.1898C38.1436 33.3064 38.1935 33.4064 38.1935 33.4731L40.9098 40.2553L41.7596 40.072L44.7591 33.4064C44.7591 33.3398 44.8258 33.2898 44.8758 33.1898C44.9424 33.1231 44.9424 33.0065 45.159 32.6732C45.3423 32.3399 45.709 32.1566 46.0089 32.1566V31.6401C45.6756 31.6401 44.9424 31.7067 44.3592 31.7067C44.0759 31.7067 43.8093 31.7067 43.5093 31.6401C43.2927 31.6401 42.9594 31.5734 42.7095 31.5734V32.0233C42.9927 32.0233 43.2594 32.14 43.376 32.24C43.4427 32.3066 43.5593 32.4566 43.5593 32.5732C43.5593 32.7565 43.4927 32.9065 43.3427 33.4231L41.693 37.4224C41.6263 37.2058 41.5097 36.8725 41.3597 36.4059L40.2265 33.4064C40.0432 32.9565 40.0099 32.7899 40.0099 32.5566C40.0099 32.4399 40.0099 32.3399 40.1266 32.2733C40.3099 32.09 40.5765 31.99 40.8598 31.99V31.5401V31.5734ZM22.3962 31.9067C22.8461 31.9733 23.4627 31.9067 24.0792 31.79C24.5958 31.6734 24.8124 31.6067 25.2124 31.4568L25.3957 31.5734V32.24C25.7956 31.9067 26.7121 31.4401 27.8286 31.4401C29.3617 31.4401 30.3115 32.1733 30.6115 33.4231C30.6781 33.7564 30.7281 34.4896 30.7281 34.9562V37.3891C30.7281 38.7389 30.7948 39.1388 31.0614 39.4388C31.178 39.5554 31.5113 39.6554 31.8613 39.6554V40.0553C31.3114 40.0553 30.3282 39.9887 29.7783 39.9887C28.9784 39.9887 28.1286 40.0553 27.6953 40.1053V39.7054C28.0952 39.6387 28.3618 39.5221 28.5452 39.4221C28.7618 39.2055 28.8284 38.6889 28.8784 37.6724C28.8784 37.3391 28.8784 36.7225 28.8784 36.206C28.8784 35.5894 28.8784 34.8895 28.8118 34.2896C28.6951 33.2231 28.1452 32.7066 27.0621 32.7066C26.3289 32.7066 25.8123 32.8899 25.479 33.0398V37.4724C25.479 38.8222 25.5456 39.2221 25.8123 39.5221C25.9289 39.6387 26.2622 39.7387 26.6121 39.7387V40.1386C25.8789 39.9553 25.0291 39.9553 24.4625 39.9553C23.3294 39.9553 22.9961 39.9553 22.3795 40.072V39.6721C22.7128 39.6721 23.1127 39.5554 23.296 39.3388C23.5127 39.0555 23.5793 38.3223 23.5793 36.9059V34.5229C23.5793 33.5064 23.5793 33.0565 23.396 32.8399C23.2794 32.6566 22.9961 32.5066 22.4462 32.5566V31.9234H22.3962V31.9067ZM49.8583 40.1053C47.3254 40.1053 45.9422 38.6389 45.9422 35.9727C45.9422 35.5227 46.0589 31.3901 49.8916 31.3901C51.0247 31.3901 52.0412 31.84 52.4912 32.6399C53.0077 33.4398 53.0411 34.223 53.0411 34.9062V35.4228H47.7919C47.7919 35.8727 47.8586 36.2226 47.9086 36.4893C48.1919 38.139 49.0917 38.9222 50.6915 38.9222C51.608 38.9222 52.1579 38.7389 52.6745 38.4056L52.8911 38.8055C52.3578 39.5554 51.2247 40.1053 49.8583 40.1053ZM47.8253 34.4563H51.0914C51.0914 33.4398 50.9081 32.3066 49.4417 32.3066C48.1585 32.3733 47.8919 33.5897 47.8253 34.4563Z" fill="#8C1515"/>
</svg>
