<svg width="230" height="31" viewBox="0 0 230 31" fill="none" xmlns="http://www.w3.org/2000/svg">
<g clip-path="url(#clip0_6786_13336)">
<path d="M17.941 3.57575C17.941 1.10516 15.5712 0.500122 13.7057 0.500122V0.853063C14.8149 0.853063 15.6721 1.206 15.6721 2.11357C15.6721 2.61777 15.3191 3.37407 14.1595 3.37407C13.3023 3.37407 11.4368 2.86987 10.0754 2.36567C8.46199 1.76063 6.9998 1.25642 5.7393 1.25642C3.26871 1.25642 1.504 3.12197 1.504 5.23962C1.504 7.10516 2.86535 7.71021 3.36955 7.96231L3.47039 7.71021C3.21829 7.45811 2.86535 7.20601 2.86535 6.4497C2.86535 5.9455 3.36955 5.08836 4.57963 5.08836C5.68888 5.08836 7.20148 5.59256 9.16787 6.1976C10.8822 6.7018 12.7477 7.05474 13.7561 7.20601V11.0379L11.8906 12.6514V12.7522L13.7561 14.3657V19.7102C12.7477 20.3152 11.6385 20.4665 10.6805 20.4665C8.81493 20.4665 7.20148 19.9623 5.84014 18.5001L10.9326 16.0295V7.45811L4.83173 10.1808C5.33594 8.56735 6.69728 7.45811 8.05863 6.7018L7.90737 6.34886C4.17627 7.35727 0.848541 10.8363 0.848541 15.0211C0.848541 19.9623 4.93258 23.6934 9.52081 23.6934C14.462 23.6934 17.6889 19.7102 17.6889 15.6262H17.4872C16.7309 17.2396 15.6217 18.7018 14.2603 19.4581V14.3657L16.2267 12.7522V12.6514L14.2603 11.0379V7.20601C16.1259 7.20601 17.941 5.9455 17.941 3.57575ZM7.15106 17.2396L5.63846 17.9959C4.78131 16.8867 4.27711 15.3741 4.27711 13.3068C4.27711 12.4497 4.27711 11.4413 4.52921 10.685L7.15106 9.57575V17.2396ZM20.3107 20.1136L18.6973 21.3741L18.9494 21.6262L19.7057 21.0211L22.4284 23.4917L26.1595 21.0211L26.0586 20.769L25.0502 21.3741L23.7897 20.1136V11.643L24.7981 10.8867L26.9158 12.601V20.164C26.9158 24.8531 25.9074 25.6094 23.8401 26.3657V26.7186C27.3191 26.8195 30.546 25.7102 30.546 19.6598V11.5421L31.6553 10.685L31.4032 10.4329L30.3948 11.1892L27.2687 8.56735L23.7897 11.1892V1.00432H23.5376L19.2015 3.97911V4.23121C19.7057 4.48332 20.462 4.73542 20.462 6.09676L20.3107 20.1136ZM42.9998 18.7522L39.9242 21.122L36.8485 18.6514V17.1388L42.6973 13.1556V13.0547L39.6721 8.56735L33.2183 12.0463V20.2144L31.9578 21.2228L32.2099 21.4749L33.3191 20.6178L37.5544 23.6934L43.1511 19.206L42.9998 18.7522ZM36.7981 16.6346V10.5337L37.0502 10.4329L39.7729 14.769L36.7981 16.6346ZM66.6973 2.46651C66.6973 2.11357 66.5965 1.71021 66.4452 1.35726H66.1931C65.8401 2.36567 65.3359 2.86987 64.0754 2.86987C62.9662 2.86987 62.2099 2.26483 61.7057 1.76063L58.1259 5.84466L58.378 6.09676L59.6385 4.98752C60.3948 5.59256 60.9998 6.09676 62.7141 6.24802V16.5337L55.4032 3.97911C54.7981 2.97071 53.8906 1.60937 52.1763 1.60937C50.2099 1.60937 48.4452 3.32365 48.6973 6.09676H49.0502C49.1511 5.34046 49.5544 4.48332 50.4116 4.48332C51.0166 4.48332 51.6721 5.08836 52.025 5.74382V9.82785C49.8065 9.82785 48.2939 10.8363 48.2939 12.7018C48.2939 13.7102 48.7981 15.1724 50.2603 15.5758V15.3237C50.0082 15.0716 49.9074 14.8195 49.9074 14.4665C49.9074 13.8615 50.4116 13.3573 51.2687 13.3573H51.8738V18.5505C49.2519 18.5505 47.1847 20.0631 47.1847 22.5337C47.1847 24.9035 49.1511 26.0127 51.42 25.8615V25.6094C50.0586 25.5085 49.4536 24.8531 49.4536 23.9959C49.4536 22.8867 50.2099 22.3825 51.1679 22.3825C52.1763 22.3825 53.0334 22.9875 53.6385 23.7438L57.2183 19.7606L56.9662 19.5085L56.109 20.5169C54.7477 19.2564 53.9914 18.9035 52.378 18.6514V6.1976L62.3611 23.5421H63.1175V6.1976C64.9326 6.09676 66.6973 4.58416 66.6973 2.46651ZM75.7225 18.7522L72.6469 21.122L69.5712 18.6514V17.1388L75.42 13.1556V13.0547L72.4452 8.56735L65.9914 12.0463V20.2144L64.7309 21.2228L64.983 21.4749L66.0922 20.6178L70.3275 23.6934L75.9242 19.206C75.8738 19.206 75.7225 18.7522 75.7225 18.7522ZM69.5208 16.6346V10.5337L69.7729 10.4329L72.4956 14.769C72.546 14.769 69.5208 16.6346 69.5208 16.6346ZM95.941 9.92869L95.0838 10.5337L92.7141 8.56735L89.9914 11.0379L91.1006 12.1472V21.4245L88.1259 19.5589V11.8951L89.1343 11.29L86.2603 8.56735L83.5376 11.0379L84.6469 12.1472V21.0716L84.2939 21.3237L81.6721 19.4581V12.0463C81.6721 10.3321 80.8149 9.82785 79.8065 9.17239C78.9494 8.56735 78.4452 8.16399 78.4452 7.30685C78.4452 6.55054 79.2015 6.1976 79.5544 5.9455V5.6934C78.546 5.6934 75.9746 6.7018 75.9746 9.02113C75.9746 10.2816 76.5796 10.7354 77.2351 11.3909C77.8401 11.9959 78.4956 12.5001 78.4956 13.6094V20.8195L77.1343 21.8279L77.3864 22.08L78.6469 21.0716L81.5208 23.5421L84.5965 21.4245L88.0754 23.5421L94.6301 19.7102V11.3909L96.2435 10.1304L95.941 9.92869ZM119.033 3.12197L117.773 4.23121L115.05 1.76063L110.966 4.73542V2.01273H110.613L110.714 22.08C110.361 22.08 109.201 21.8279 108.344 21.5758L108.092 4.83626C108.092 3.57575 107.235 1.86147 105.017 1.86147C102.798 1.86147 101.286 3.57575 101.286 5.34046H101.638C101.739 4.58416 102.143 3.97911 102.899 3.97911C103.655 3.97911 104.26 4.48332 104.26 6.09676V10.9371C102.042 11.0379 100.68 12.2984 100.68 13.9119C100.68 14.9203 101.185 16.3825 102.647 16.3825V16.1304C102.143 15.8783 102.042 15.5253 102.042 15.2732C102.042 14.5169 102.647 14.2648 103.655 14.2648H104.159V21.9287C102.294 22.5337 101.538 23.8951 101.538 25.4077C101.538 27.5253 103.151 28.9875 105.622 28.9875C107.336 28.9875 108.849 28.7354 110.311 28.3825C111.571 28.1304 113.185 27.7774 113.891 27.7774C114.899 27.7774 115.252 28.2816 115.252 28.8867C115.252 29.7438 114.899 30.1472 114.395 30.248V30.5001C116.361 30.1472 117.622 28.8867 117.622 27.0211C117.622 25.1556 115.756 24.0463 113.79 24.0463C112.781 24.0463 110.714 24.3993 109.201 24.6514C107.487 25.0043 105.722 25.2564 105.218 25.2564C104.361 25.2564 103.353 24.9035 103.353 23.643C103.353 22.6346 104.21 21.7774 106.328 21.7774C107.437 21.7774 108.798 21.8783 110.159 22.2816C111.672 22.6346 113.033 23.0379 114.243 23.0379C116.109 23.0379 117.722 22.4329 117.722 19.811V4.58416L119.235 3.32365L119.033 3.12197ZM113.941 10.685C113.588 11.0379 113.084 11.4413 112.428 11.4413C111.773 11.4413 111.168 11.0884 110.916 10.685V5.1892L112.176 4.33206L113.891 5.9455C113.941 5.9455 113.941 10.685 113.941 10.685ZM113.941 14.3657C113.689 14.1136 113.084 13.7606 112.428 13.7606C111.773 13.7606 111.168 14.1136 110.916 14.3657V11.1388C111.168 11.3909 111.773 11.7438 112.428 11.7438C113.084 11.7438 113.689 11.3909 113.941 11.1388V14.3657ZM113.941 20.2144C113.941 21.2228 113.336 22.1808 111.975 22.1808H110.966V14.8699C111.218 14.6178 111.823 14.2648 112.479 14.2648C113.134 14.2648 113.588 14.6178 113.991 14.8699C113.941 14.8699 113.941 20.2144 113.941 20.2144ZM130.933 11.3909L126.949 8.51693L120.849 11.9959V20.0631L119.588 21.0716L119.689 21.3237L120.697 20.5674L124.68 23.5421L130.882 19.811C130.933 19.8615 130.933 11.3909 130.933 11.3909ZM124.227 19.206V10.2816L127.302 12.5001V21.3237C127.353 21.3237 124.227 19.206 124.227 19.206ZM142.731 8.81945H142.479C142.126 9.07155 141.723 9.32365 141.37 9.32365C140.865 9.32365 140.26 9.07155 140.008 8.71861H139.756L137.638 11.0884L135.521 8.71861L131.79 11.1892L131.891 11.4413L132.899 10.8363L134.159 12.1976V20.0127L132.546 21.2732L132.798 21.5253L133.554 20.9203L136.529 23.3909L140.361 20.769L140.26 20.5169L139.151 21.122L137.638 19.8615V11.1892C138.243 11.7942 139 12.4497 139.857 12.4497C141.571 12.5505 142.58 10.7858 142.731 8.81945ZM157.605 20.7186L153.37 23.5926L147.672 14.9203L151.756 8.61777H152.008C152.512 9.12197 153.269 9.62617 154.126 9.62617C154.983 9.62617 155.638 9.12197 155.991 8.61777H156.244C156.143 11.0884 154.378 12.601 153.168 12.601C151.907 12.601 151.302 11.9959 150.546 11.5926L150.193 12.1976L156.395 21.3741L157.655 20.6178V20.7186H157.605ZM143.941 20.1136L142.328 21.3741L142.58 21.6262L143.336 21.0211L146.059 23.4917L149.79 21.0211L149.538 20.769L148.529 21.3741L147.269 20.1136V1.00432H147.168L142.68 3.97911V4.23121C143.185 4.48332 143.941 4.58416 143.941 6.09676V20.1136ZM178.176 3.57575C178.176 1.10516 175.807 0.500122 173.941 0.500122V0.853063C175.05 0.853063 175.907 1.206 175.907 2.11357C175.907 2.61777 175.554 3.37407 174.395 3.37407C173.538 3.37407 171.672 2.86987 170.311 2.36567C168.697 1.86147 167.235 1.35726 165.975 1.35726C163.504 1.35726 161.739 3.22281 161.739 5.34046C161.739 7.20601 163.101 7.81105 163.605 8.06315L163.706 7.81105C163.353 7.55895 162.949 7.30685 162.949 6.55054C162.949 6.04634 163.454 5.1892 164.664 5.1892C165.773 5.1892 167.286 5.6934 169.252 6.29844C170.966 6.80264 172.832 7.15558 173.84 7.30685V11.1388L171.975 12.7522V12.8531L173.84 14.4665V19.811C172.832 20.4161 171.723 20.5674 170.765 20.5674C168.899 20.5674 167.286 20.0631 165.924 18.601L171.017 16.1304V7.45811L164.815 10.1808C165.42 8.56735 166.781 7.45811 168.042 6.60096L167.941 6.34886C164.21 7.35727 160.882 10.685 160.882 14.9203C160.882 19.8615 164.966 23.5926 169.554 23.5926C174.496 23.5926 177.722 19.6094 177.722 15.5253H177.47C176.714 17.1388 175.605 18.601 174.243 19.3573V14.2648L176.21 12.6514V12.5505L174.344 10.9371V7.20601C176.311 7.20601 178.176 5.9455 178.176 3.57575ZM167.386 17.2396L165.874 17.9959C165.017 16.8867 164.512 15.3741 164.512 13.3068C164.512 12.4497 164.613 11.4413 164.865 10.685L167.487 9.57575L167.386 17.2396ZM182.512 2.36567H182.361L179.891 4.48332V4.58416L182.008 6.9539H182.26L184.731 4.83626V4.73542L182.512 2.36567ZM186.244 20.7186L185.235 21.3237L183.975 20.0631V11.4917L185.235 10.6346L184.983 10.3825L184.126 11.1388L181.907 8.51693L178.328 10.9875L178.58 11.3405L179.437 10.7354L180.546 12.0968V20.164L178.933 21.4245L179.033 21.6766L179.891 21.0716L182.613 23.5421L186.344 21.0716L186.244 20.7186ZM206.916 20.5674L206.059 21.1724L204.697 19.9119V11.5421L205.958 10.5337L205.706 10.2816L204.697 11.1388L201.823 8.51693L198.092 11.1388L195.218 8.51693L191.739 11.1388L189.521 8.51693L185.941 10.9875L186.042 11.3405L186.899 10.7354L188.159 12.0968V20.164L187.151 21.1724L190.025 23.5421L192.748 21.0716L191.638 19.9623V11.5421L192.748 10.7858L194.613 12.5001V19.9623L193.605 20.9707L196.479 23.3405L199.201 20.8699L198.092 19.7606V11.5421L199.101 10.9371L201.067 12.6514V20.1136L200.21 20.9707L203.084 23.5926L206.916 20.9707V20.5674ZM217.706 18.7522L214.63 21.122L211.554 18.6514V17.1388L217.403 13.1556V13.0547L214.428 8.56735L207.975 12.0463V20.4665L212.311 23.5421L217.907 19.0547C217.857 19.1052 217.706 18.7522 217.706 18.7522ZM211.504 16.6346V10.5337L211.756 10.4329L214.479 14.769L211.504 16.6346ZM229 15.5253L226.63 13.6598C228.243 12.2984 228.849 10.4329 228.849 9.17239V8.41609H228.596C228.344 9.02113 227.84 9.67659 226.882 9.67659C225.874 9.67659 225.269 9.17239 224.664 8.41609L219.067 11.4917V15.9791L221.185 17.5926C219.067 19.4581 218.714 20.6682 218.714 21.6766C218.714 22.9371 219.319 23.7942 220.328 24.1472L220.428 23.8951C220.176 23.643 219.924 23.5421 219.924 22.8867C219.924 22.5337 220.428 21.8783 221.437 21.8783C222.697 21.8783 223.403 22.7354 223.807 23.1388L229.151 19.9119V15.4245C229.151 15.5253 229 15.5253 229 15.5253ZM227.638 11.7942C226.781 13.3068 224.916 14.769 223.807 15.5253L222.445 14.4161V10.08C222.949 11.3405 224.311 12.2984 225.672 12.2984C226.529 12.2984 227.033 12.1472 227.638 11.7942ZM225.521 21.727C224.916 20.3657 223.403 19.3573 221.941 19.3573C221.588 19.3573 220.58 19.3573 219.571 19.9623C220.176 18.9539 221.79 17.2396 223.907 15.9791L225.42 17.2396L225.521 21.727Z" fill="black"/>
</g>
<defs>
<clipPath id="clip0_6786_13336">
<rect width="228.303" height="30" fill="white" transform="translate(0.848755 0.5)"/>
</clipPath>
</defs>
</svg>
