<svg width="135" height="16" viewBox="0 0 135 16" fill="none" xmlns="http://www.w3.org/2000/svg">
<g clip-path="url(#clip0_6789_13716)">
<path fill-rule="evenodd" clip-rule="evenodd" d="M107.743 7.61545V12.5164C107.743 12.7746 107.772 12.9906 107.832 13.1644C107.892 13.3383 107.979 13.4799 108.093 13.589C108.208 13.6986 108.349 13.7779 108.518 13.8271C108.703 13.8789 108.894 13.9041 109.085 13.9019C109.394 13.9019 109.672 13.8274 109.921 13.6782C110.168 13.5303 110.37 13.3164 110.503 13.0604C110.642 12.7972 110.712 12.5017 110.712 12.1739V7.61579H112.785V15.4508H111.085L110.935 14.3785H110.831C110.642 14.6272 110.418 14.8478 110.167 15.0339C109.913 15.2229 109.627 15.3693 109.309 15.4733C108.991 15.5777 108.643 15.6299 108.265 15.6299C107.469 15.6299 106.837 15.4115 106.37 14.9745C105.902 14.5376 105.669 13.8325 105.669 12.8592V7.61545H107.743ZM123.258 7.43668C124.054 7.43668 124.726 7.57822 125.272 7.8613C125.819 8.14438 126.232 8.5813 126.511 9.17206C126.789 9.76327 126.928 10.5255 126.929 11.4588V11.9952H121.453C121.473 12.452 121.545 12.8393 121.669 13.157C121.794 13.475 121.988 13.7109 122.251 13.8647C122.514 14.0188 122.865 14.0957 123.303 14.0955C123.542 14.0955 123.758 14.0656 123.952 14.0059C124.135 13.9523 124.305 13.861 124.451 13.7379C124.591 13.6187 124.7 13.4698 124.78 13.2912C124.859 13.1123 124.899 12.9087 124.899 12.6804H126.928C126.928 13.1768 126.839 13.6088 126.66 13.9764C126.487 14.3363 126.231 14.6502 125.914 14.8924C125.595 15.1359 125.215 15.3197 124.772 15.4438C124.33 15.5679 123.84 15.6299 123.303 15.6299C122.438 15.6299 121.712 15.4835 121.125 15.1905C120.538 14.8976 120.095 14.4482 119.797 13.8422C119.499 13.2363 119.349 12.4666 119.349 11.5333C119.349 10.5899 119.499 9.81782 119.797 9.217C120.096 8.61619 120.536 8.1692 121.117 7.87606C121.699 7.58337 122.413 7.43691 123.258 7.43668H123.258ZM131.494 7.43668C131.951 7.43668 132.379 7.48386 132.777 7.57822C133.175 7.67281 133.523 7.81189 133.821 7.99546C134.12 8.17927 134.353 8.40768 134.522 8.68069C134.692 8.95371 134.776 9.25904 134.776 9.59668V9.79055C134.776 9.85002 134.771 9.88971 134.761 9.90961H132.777V9.79055C132.777 9.61189 132.722 9.4604 132.612 9.33607C132.503 9.21175 132.346 9.11493 132.143 9.04561C131.939 8.9763 131.693 8.94153 131.404 8.9413C131.205 8.9413 131.024 8.95617 130.86 8.98591C130.713 9.01025 130.569 9.05543 130.435 9.12007C130.315 9.17978 130.223 9.25178 130.159 9.33607C130.094 9.4206 130.061 9.52233 130.061 9.64129C130.061 9.81033 130.134 9.94696 130.278 10.0512C130.422 10.1554 130.613 10.2422 130.852 10.3118C131.091 10.3813 131.354 10.4558 131.643 10.5351C132.001 10.6344 132.376 10.7312 132.769 10.8256C133.162 10.9202 133.527 11.0469 133.866 11.2056C134.194 11.3566 134.477 11.5902 134.687 11.8835C134.895 12.1764 135 12.571 135 13.0674C135 13.5444 134.908 13.9466 134.724 14.2742C134.542 14.6003 134.277 14.8726 133.956 15.0638C133.627 15.2628 133.244 15.4068 132.807 15.4958C132.369 15.5852 131.897 15.6299 131.39 15.6299C130.842 15.6299 130.35 15.5703 129.912 15.4512C129.474 15.3322 129.101 15.1658 128.794 14.9521C128.485 14.7385 128.249 14.4827 128.085 14.1847C127.921 13.8871 127.839 13.5494 127.839 13.1718V13.0527C127.839 13.0131 127.844 12.9834 127.853 12.9635H129.852V13.0825C129.862 13.3307 129.942 13.5319 130.091 13.6859C130.24 13.84 130.437 13.9518 130.681 14.0213C130.925 14.0906 131.181 14.1253 131.449 14.1253C131.688 14.1253 131.919 14.1029 132.143 14.0582C132.479 13.9911 132.555 13.9314 132.71 13.8124C132.864 13.6934 132.941 13.5395 132.941 13.3505C132.941 13.1124 132.844 12.9287 132.65 12.7995C132.456 12.6707 132.203 12.5665 131.889 12.4869C131.576 12.4073 131.235 12.3178 130.867 12.2185C130.526 12.1382 130.188 12.0462 129.853 11.9428C129.531 11.8462 129.222 11.7086 128.935 11.5333C128.665 11.3678 128.437 11.1407 128.271 10.8705C128.102 10.5975 128.018 10.2524 128.018 9.83515C128.018 9.4282 128.107 9.07312 128.286 8.76991C128.465 8.46715 128.711 8.21638 129.025 8.0176C129.338 7.81927 129.706 7.67281 130.129 7.57822C130.551 7.48409 131.006 7.43691 131.494 7.43668ZM39.3692 7.61545V12.5164C39.3692 12.7746 39.399 12.9906 39.4584 13.1644C39.5184 13.3383 39.6056 13.4799 39.7201 13.589C39.8341 13.6986 39.9757 13.7779 40.145 13.8271C40.3294 13.8789 40.5203 13.9041 40.7118 13.9019C41.0202 13.9019 41.2987 13.8274 41.5473 13.6782C41.7949 13.5303 41.9964 13.3164 42.1293 13.0604C42.2683 12.7972 42.3379 12.5017 42.3379 12.1739V7.61579H44.4117V15.4508H42.7112L42.5619 14.3785H42.4573C42.268 14.6271 42.0445 14.8478 41.7935 15.0339C41.5397 15.2229 41.2537 15.3693 40.9356 15.4733C40.6171 15.5777 40.2691 15.6299 39.8914 15.6299C39.0954 15.6299 38.4637 15.4115 37.9964 14.9745C37.5291 14.5376 37.2954 13.8325 37.2954 12.8592V7.61545H39.3692ZM87.1696 7.43668C87.9652 7.43668 88.6366 7.57822 89.1837 7.8613C89.7304 8.14438 90.1432 8.5813 90.422 9.17206C90.7004 9.76327 90.8396 10.5255 90.8396 11.4588V11.9952H85.3645C85.3841 12.452 85.4563 12.8393 85.5808 13.157C85.7051 13.475 85.899 13.7109 86.1624 13.8647C86.4258 14.0188 86.7764 14.0957 87.2142 14.0955C87.4338 14.098 87.6525 14.0678 87.8632 14.0059C88.0466 13.9523 88.2168 13.861 88.363 13.7379C88.5021 13.6187 88.6115 13.4698 88.6913 13.2912C88.771 13.1123 88.8107 12.9087 88.8107 12.6804H90.8399C90.8399 13.1768 90.7503 13.6088 90.5709 13.9764C90.3981 14.3363 90.1425 14.6502 89.825 14.8924C89.5066 15.1359 89.1263 15.3197 88.684 15.4438C88.2412 15.5679 87.7513 15.6299 87.2142 15.6299C86.3489 15.6299 85.6228 15.4835 85.0361 15.1905C84.156 14.7512 84.0068 14.448 83.7082 13.8422C83.4097 13.2365 83.2605 12.4668 83.2605 11.5333C83.2605 10.5899 83.4097 9.81782 83.7082 9.217C84.0068 8.61619 84.4469 8.1692 85.0287 7.87606C85.6105 7.58337 86.3242 7.43691 87.1696 7.43668ZM103.193 5.38099V7.61545H104.625V9.20929H103.193V13.2912C103.192 13.5295 103.247 13.7106 103.357 13.8345C103.466 13.9591 103.645 14.0212 103.894 14.021H104.625V15.3915C104.506 15.4313 104.366 15.4685 104.207 15.5031C104.048 15.5378 103.879 15.5676 103.7 15.5927C103.521 15.6173 103.357 15.6297 103.207 15.6299C102.71 15.6299 102.307 15.5405 101.999 15.3616C101.691 15.1829 101.467 14.9421 101.328 14.6391C101.188 14.3366 101.119 14.0014 101.119 13.6336V9.20963H100.149V7.61545H101.193L101.581 5.38099H103.193ZM5.28583 7.66241L9.59577 15.1174L13.9064 7.66241L18.3431 15.3351C18.3499 15.347 18.3535 15.3604 18.3535 15.3741C18.3535 15.3878 18.3499 15.4012 18.343 15.4131C18.3361 15.4249 18.3263 15.4347 18.3144 15.4415C18.3025 15.4483 18.289 15.4519 18.2753 15.4518H0.91619C0.902557 15.4518 0.889178 15.4481 0.877391 15.4413C0.865605 15.4344 0.855825 15.4246 0.849032 15.4128C0.842239 15.401 0.838671 15.3876 0.838684 15.3739C0.838698 15.3603 0.842293 15.3469 0.849109 15.3351L5.28583 7.66241ZM63.6726 7.43668C64.1898 7.43668 64.6423 7.53104 65.0303 7.71976C65.4182 7.90848 65.719 8.20643 65.9325 8.61361C66.1465 9.02102 66.2535 9.5523 66.2535 10.2075V15.4512H64.1797V10.5351C64.1797 10.2869 64.15 10.076 64.0905 9.90224C64.0377 9.74 63.9482 9.59215 63.8289 9.47023C63.7102 9.35377 63.564 9.2692 63.4039 9.22438C63.2195 9.17272 63.0286 9.14764 62.8371 9.14992C62.5285 9.14992 62.25 9.22438 62.0016 9.3733C61.7553 9.51962 61.554 9.73078 61.4197 9.98374C61.2804 10.2424 61.2108 10.5405 61.211 10.8779V15.4512H59.1372V7.61545H60.8528L61.0172 8.68807H61.1212C61.2992 8.43046 61.5185 8.20393 61.7702 8.0176C62.0297 7.82611 62.3198 7.68004 62.6281 7.5856C62.9463 7.48655 63.2945 7.43691 63.6726 7.43668ZM96.6585 7.43668C97.1753 7.43668 97.6278 7.53104 98.0162 7.71976C98.404 7.90848 98.7047 8.20643 98.9185 8.61361C99.1325 9.02102 99.2395 9.5523 99.2395 10.2075V15.4512H97.1656V10.5351C97.1656 10.2869 97.1358 10.076 97.0761 9.90224C97.0235 9.74006 96.9342 9.59222 96.8152 9.47023C96.6964 9.35372 96.5501 9.26915 96.3899 9.22438C96.2054 9.17272 96.0146 9.14764 95.823 9.14992C95.5145 9.14992 95.236 9.22438 94.9875 9.3733C94.7413 9.51962 94.54 9.73078 94.4056 9.98374C94.2663 10.2424 94.1967 10.5405 94.1967 10.8779V15.4512H92.1229V7.61545H93.8388L94.0028 8.68807H94.1071C94.2856 8.43084 94.5048 8.20439 94.7561 8.0176C95.0156 7.82611 95.3057 7.68004 95.6141 7.5856C95.9323 7.48655 96.2804 7.43691 96.6585 7.43668ZM55.0644 7.43668C55.5615 7.43668 55.9916 7.52612 56.3547 7.70501C56.7179 7.88389 57.0038 8.17435 57.2127 8.57638C57.4215 8.97887 57.526 9.49774 57.526 10.133V15.4512H55.4522V10.5056C55.4522 10.2574 55.4248 10.0463 55.37 9.87238C55.3152 9.69842 55.2381 9.55934 55.1386 9.45514C55.0351 9.34887 54.9072 9.26963 54.7659 9.22438C54.6119 9.1741 54.4507 9.14896 54.2886 9.14992C54.0103 9.14992 53.7616 9.22438 53.5427 9.3733C53.3238 9.52222 53.1522 9.7257 53.0279 9.98374C52.9038 10.2424 52.8416 10.5405 52.8414 10.8779V15.4512H50.7676V10.5056C50.7676 10.2574 50.7402 10.0463 50.6854 9.87238C50.6306 9.69842 50.5535 9.55934 50.454 9.45514C50.3526 9.34988 50.2273 9.27071 50.0887 9.22438C49.9325 9.17271 49.7686 9.14754 49.6041 9.14992C49.3357 9.14992 49.0896 9.22438 48.8655 9.3733C48.6417 9.52222 48.4676 9.7257 48.3433 9.98374C48.219 10.2424 48.1568 10.5405 48.1568 10.8779V15.4512H46.083V7.61545H47.7986L47.9629 8.68807H48.0672C48.2323 8.43425 48.4362 8.20799 48.6716 8.0176C48.9074 7.82781 49.1751 7.68153 49.4622 7.5856C49.7678 7.48463 50.0879 7.43433 50.4097 7.43668C50.9068 7.43668 51.3369 7.53607 51.7 7.73486C52.0631 7.93364 52.3442 8.25138 52.5432 8.68807H52.6472C52.8136 8.43296 53.0204 8.20653 53.2593 8.0176C53.5049 7.8259 53.7827 7.67961 54.0797 7.5856C54.3981 7.48465 54.7304 7.4344 55.0644 7.43668ZM28.8661 5.23241L32.8047 15.4515H30.4029L29.6717 13.4404H25.2108L24.4796 15.4515H22.1821L26.1211 5.23207L28.8661 5.23241ZM69.953 7.61579V15.4515H67.8792V7.61545H69.953V7.61579ZM118.261 7.42226C118.429 7.42226 118.584 7.4397 118.723 7.47458C118.862 7.50924 118.967 7.54144 119.036 7.57118V9.4481H118.395C118.087 9.44832 117.816 9.49047 117.582 9.57454C117.355 9.65421 117.152 9.79016 116.992 9.96965C116.834 10.1481 116.717 10.3665 116.642 10.625C116.567 10.8833 116.53 11.1862 116.53 11.5336V15.4512H114.456V7.61612H116.172L116.336 8.83733H116.441C116.537 8.58479 116.667 8.34666 116.828 8.12963C116.987 7.91662 117.191 7.74119 117.425 7.61579C117.664 7.48677 117.942 7.42226 118.261 7.42226ZM35.6845 4.68134V15.4512H33.6103V4.68134H35.6845ZM75.9353 5.23207L78.1432 11.7567C78.1828 11.8662 78.2275 11.9978 78.2774 12.1515C78.327 12.3055 78.3768 12.457 78.4267 12.6059C78.4763 12.7548 78.5161 12.8889 78.5461 13.0081H78.6353C78.6751 12.8987 78.7174 12.7721 78.7624 12.6281C78.8071 12.4841 78.8518 12.3376 78.8965 12.1887C78.9413 12.0398 78.9835 11.9008 79.0233 11.7718L81.2313 5.23207H83.5439L79.8293 15.4512H77.2333L73.5338 5.23207H75.9359H75.9353ZM27.4785 7.16869H27.3893C27.3296 7.39103 27.265 7.61201 27.1954 7.83145C27.1156 8.08479 27.036 8.32819 26.9566 8.56163C26.877 8.79484 26.8123 8.98602 26.7624 9.13517L25.8528 11.652H29.0307L28.1205 9.1345C28.0807 9.0256 28.0334 8.89401 27.9786 8.73973C27.9184 8.56951 27.8614 8.3982 27.8075 8.22589C27.7486 8.04026 27.6914 7.8541 27.6358 7.66744C27.5861 7.50026 27.5338 7.33388 27.4788 7.16836L27.4785 7.16869ZM87.1995 8.97115C86.8214 8.97115 86.5055 9.0332 86.252 9.1573C86.0019 9.27815 85.7977 9.4768 85.67 9.72346C85.5359 9.97681 85.4438 10.2971 85.394 10.6844H88.7061C88.7061 10.3863 88.6689 10.1281 88.5944 9.90961C88.5197 9.69138 88.4178 9.51261 88.2885 9.3733C88.1592 9.23456 87.9977 9.12974 87.8183 9.06809C87.6189 9.00125 87.4097 8.96871 87.1995 8.97115ZM123.289 8.97115C122.91 8.97115 122.594 9.0332 122.341 9.1573C122.091 9.27815 121.887 9.4768 121.759 9.72346C121.625 9.97681 121.533 10.2971 121.483 10.6844H124.795C124.795 10.3863 124.758 10.1281 124.683 9.90961C124.609 9.69138 124.507 9.51261 124.377 9.3733C124.248 9.23465 124.087 9.12984 123.908 9.06809C123.708 9.00122 123.499 8.96867 123.289 8.97115ZM9.52869 0.324111C9.53551 0.312269 9.54534 0.302434 9.55717 0.295595C9.56901 0.288757 9.58243 0.285156 9.5961 0.285156C9.60977 0.285156 9.6232 0.288757 9.63503 0.295595C9.64687 0.302434 9.65669 0.312269 9.66352 0.324111L12.4732 5.1831L9.5961 10.1588L6.71901 5.1831L9.52869 0.324111ZM69.953 4.68101V6.46871H67.8792V4.68101H69.953Z" fill="url(#paint0_linear_6789_13716)"/>
</g>
<defs>
<linearGradient id="paint0_linear_6789_13716" x1="0.838684" y1="7.95754" x2="135" y2="7.95754" gradientUnits="userSpaceOnUse">
<stop stop-color="#A4B1B6"/>
<stop offset="1" stop-color="#484E50"/>
</linearGradient>
<clipPath id="clip0_6789_13716">
<rect width="134.161" height="15.4286" fill="white" transform="translate(0.838562 0.285645)"/>
</clipPath>
</defs>
</svg>
