<svg width="114" height="20" viewBox="0 0 114 20" fill="none" xmlns="http://www.w3.org/2000/svg">
<g clip-path="url(#clip0_6789_13697)">
<path d="M31.5975 8.04223C31.2226 7.84271 30.9141 7.53803 30.71 7.16562C30.4963 6.76703 30.3887 6.32017 30.3977 5.86801V2.99625C30.3889 2.5441 30.4964 2.09728 30.71 1.69864C30.9143 1.32635 31.2227 1.02171 31.5975 0.822031C32.0078 0.607138 32.4658 0.499418 32.9288 0.508874C33.3935 0.499544 33.8532 0.606917 34.2657 0.821165C34.6435 1.02057 34.9557 1.325 35.1645 1.69777C35.3812 2.09538 35.4905 2.54263 35.4816 2.99538V5.86628C35.4907 6.31905 35.3813 6.76633 35.1645 7.16389C34.9558 7.53678 34.6436 7.84125 34.2657 8.0405C33.8532 8.25489 33.3936 8.36227 32.9288 8.35279C32.466 8.36319 32.008 8.25636 31.5975 8.04223ZM34.3588 7.31384C34.542 7.12615 34.6846 6.90285 34.7779 6.65776C34.8712 6.41267 34.9132 6.15103 34.9012 5.88906V2.98529C34.9122 2.7243 34.8697 2.46381 34.7765 2.2198C34.6832 1.9758 34.5411 1.75341 34.3588 1.56628C34.1699 1.38331 33.9457 1.24083 33.6998 1.14756C33.4539 1.0543 33.1916 1.01221 32.9288 1.02388C32.6687 1.01269 32.4091 1.05506 32.1661 1.14837C31.923 1.24167 31.7017 1.38392 31.5159 1.56628C31.3352 1.75425 31.1944 1.9769 31.1021 2.2208C31.0098 2.46469 30.968 2.72476 30.979 2.98529V5.88906C30.9622 6.15003 31.001 6.41158 31.093 6.6564C31.1849 6.90121 31.3278 7.1237 31.5122 7.3091C31.6967 7.49451 31.9184 7.6386 32.1627 7.73183C32.407 7.82506 32.6684 7.86531 32.9294 7.84989C33.1915 7.86163 33.4532 7.82022 33.6989 7.72815C33.9445 7.63607 34.169 7.49495 34.3588 7.31384Z" fill="#A4B1B6"/>
<path d="M44.424 1.1502C44.6164 1.35159 44.766 1.58985 44.8639 1.85062C44.9618 2.11139 45.0059 2.38928 44.9935 2.66754C45.0055 2.94383 44.9607 3.21965 44.8617 3.47788C44.7628 3.73612 44.6118 3.97127 44.4182 4.16874C44.2169 4.36131 43.9787 4.51108 43.7179 4.60901C43.4571 4.70694 43.1792 4.751 42.9009 4.73853H40.6229C40.6169 4.73771 40.6109 4.73828 40.6052 4.74019C40.5995 4.74211 40.5944 4.74532 40.5902 4.74957C40.5859 4.75383 40.5828 4.759 40.5809 4.76469C40.579 4.77038 40.5785 4.77643 40.5793 4.78236V8.15615C40.5815 8.17103 40.5801 8.18621 40.5753 8.20047C40.5706 8.21473 40.5626 8.22769 40.5519 8.23832C40.5413 8.24895 40.5283 8.25696 40.5141 8.26171C40.4998 8.26647 40.4846 8.26785 40.4698 8.26573H40.1082C40.0933 8.2679 40.078 8.26656 40.0638 8.26182C40.0495 8.25709 40.0365 8.24908 40.0258 8.23845C40.0151 8.22781 40.0071 8.21484 40.0023 8.20055C39.9975 8.18626 39.9962 8.17106 39.9983 8.15615V0.684218C39.9962 0.669329 39.9976 0.65416 40.0024 0.639912C40.0072 0.625664 40.0153 0.612727 40.0259 0.602125C40.0366 0.591522 40.0496 0.583546 40.0638 0.578826C40.0781 0.574106 40.0933 0.572772 40.1082 0.57493H42.9242C43.2003 0.563067 43.4758 0.608004 43.7338 0.706958C43.9918 0.805912 44.2267 0.956775 44.424 1.1502ZM43.9914 3.81261C44.134 3.6614 44.2449 3.48312 44.3175 3.28833C44.39 3.09354 44.4228 2.88618 44.4139 2.6785C44.4235 2.46919 44.3911 2.26007 44.3186 2.06347C44.2462 1.86686 44.1351 1.68674 43.992 1.53372C43.8467 1.38851 43.6728 1.27508 43.4813 1.20062C43.2899 1.12616 43.0851 1.0923 42.8798 1.10118H40.6223C40.6164 1.10037 40.6104 1.10094 40.6047 1.10284C40.5991 1.10474 40.5939 1.10792 40.5897 1.11214C40.5855 1.11636 40.5823 1.12149 40.5804 1.12715C40.5785 1.1328 40.5779 1.13882 40.5788 1.14473V4.20132C40.5779 4.20724 40.5784 4.21328 40.5803 4.21896C40.5822 4.22465 40.5853 4.22981 40.5896 4.23404C40.5938 4.23827 40.599 4.24146 40.6047 4.24333C40.6103 4.24521 40.6164 4.24574 40.6223 4.24486H42.8798C43.0849 4.25366 43.2896 4.21978 43.4808 4.14538C43.6721 4.07097 43.8462 3.95766 43.9914 3.81261Z" fill="#A4B1B6"/>
<path d="M54.0532 1.11156H49.9009C49.895 1.11075 49.8889 1.11133 49.8832 1.11324C49.8775 1.11516 49.8724 1.11837 49.8681 1.12261C49.8639 1.12685 49.8607 1.13202 49.8588 1.13771C49.8568 1.1434 49.8563 1.14945 49.8571 1.15539V4.11337C49.8562 4.11933 49.8567 4.12541 49.8586 4.13112C49.8605 4.13684 49.8637 4.14203 49.868 4.14629C49.8722 4.15055 49.8774 4.15375 49.8832 4.15565C49.8889 4.15754 49.8949 4.15807 49.9009 4.1572H52.8482C52.8631 4.15503 52.8783 4.15637 52.8926 4.1611C52.9069 4.16584 52.9199 4.17384 52.9305 4.18448C52.9412 4.19512 52.9492 4.20809 52.954 4.22238C52.9588 4.23666 52.9602 4.25187 52.958 4.26678V4.56292C52.9601 4.57781 52.9587 4.59298 52.9539 4.60723C52.9491 4.62148 52.9411 4.63441 52.9304 4.64501C52.9198 4.65562 52.9068 4.66359 52.8925 4.66831C52.8782 4.67303 52.8631 4.67437 52.8482 4.67221H49.9003C49.8944 4.67139 49.8883 4.67197 49.8826 4.6739C49.8768 4.67583 49.8717 4.67906 49.8674 4.68334C49.8632 4.68762 49.86 4.69282 49.8581 4.69855C49.8562 4.70427 49.8556 4.71036 49.8565 4.71633V7.70804C49.8557 7.71399 49.8563 7.72004 49.8582 7.72573C49.8601 7.73142 49.8633 7.73658 49.8675 7.74083C49.8718 7.74507 49.877 7.74828 49.8826 7.75019C49.8883 7.75211 49.8944 7.75268 49.9003 7.75187H54.0526C54.0675 7.7498 54.0826 7.75121 54.0968 7.75599C54.1111 7.76077 54.124 7.76879 54.1346 7.77941C54.1452 7.79004 54.1532 7.80298 54.1579 7.81721C54.1626 7.83145 54.164 7.84659 54.1619 7.86145V8.1573C54.164 8.17216 54.1626 8.1873 54.1579 8.20154C54.1532 8.21577 54.1452 8.22871 54.1346 8.23934C54.124 8.24996 54.1111 8.25798 54.0968 8.26276C54.0826 8.26754 54.0675 8.26895 54.0526 8.26688H49.3853C49.3704 8.269 49.3553 8.26762 49.341 8.26287C49.3268 8.25811 49.3138 8.2501 49.3032 8.23947C49.2925 8.22884 49.2845 8.21588 49.2798 8.20162C49.275 8.18736 49.2736 8.17219 49.2758 8.1573V0.706421C49.2736 0.691538 49.275 0.676366 49.2798 0.662105C49.2845 0.647844 49.2925 0.634886 49.3032 0.624256C49.3138 0.613626 49.3268 0.605615 49.341 0.600858C49.3553 0.5961 49.3704 0.594727 49.3853 0.596845H54.0532C54.0681 0.594776 54.0832 0.596187 54.0974 0.600967C54.1116 0.605746 54.1246 0.613764 54.1352 0.624388C54.1458 0.635012 54.1537 0.647952 54.1585 0.662187C54.1632 0.676423 54.1646 0.691565 54.1625 0.706421V1.00199C54.1647 1.01686 54.1633 1.03202 54.1586 1.04629C54.1539 1.06055 54.1459 1.07352 54.1353 1.08416C54.1247 1.0948 54.1117 1.10281 54.0975 1.10757C54.0832 1.11233 54.0681 1.1137 54.0532 1.11156Z" fill="#A4B1B6"/>
<path d="M63.0732 8.19045L61.3979 4.70593C61.3955 4.69616 61.3898 4.68751 61.3818 4.68147C61.3737 4.67542 61.3638 4.67235 61.3538 4.67277H59.2831C59.2771 4.6719 59.271 4.67244 59.2652 4.67435C59.2595 4.67626 59.2543 4.67948 59.25 4.68377C59.2457 4.68805 59.2425 4.69328 59.2406 4.69903C59.2386 4.70478 59.2381 4.71089 59.239 4.71689V8.15729C59.2411 8.17217 59.2397 8.18734 59.235 8.2016C59.2302 8.21586 59.2222 8.22882 59.2116 8.23945C59.2009 8.25008 59.188 8.25809 59.1737 8.26285C59.1595 8.26761 59.1443 8.26898 59.1294 8.26686H58.7678C58.7529 8.26893 58.7378 8.26752 58.7236 8.26274C58.7094 8.25796 58.6964 8.24994 58.6858 8.23932C58.6753 8.2287 58.6673 8.21576 58.6625 8.20152C58.6578 8.18729 58.6564 8.17214 58.6585 8.15729V0.706404C58.6564 0.691548 58.6578 0.676406 58.6625 0.66217C58.6673 0.647934 58.6753 0.634995 58.6858 0.624371C58.6964 0.613747 58.7094 0.605729 58.7236 0.600949C58.7378 0.59617 58.7529 0.594759 58.7678 0.596828H61.5294C61.8024 0.585247 62.0749 0.629814 62.3301 0.727772C62.5852 0.82573 62.8175 0.974995 63.0127 1.16634C63.2025 1.36373 63.3504 1.59755 63.4474 1.85368C63.5444 2.10981 63.5885 2.38293 63.577 2.65657C63.5921 3.12961 63.4409 3.59298 63.1496 3.966C62.8616 4.32225 62.4514 4.55865 61.9988 4.62923C61.9622 4.64422 61.9512 4.6621 61.9659 4.6843L63.6427 8.13566C63.6505 8.15295 63.6543 8.17178 63.6537 8.19074C63.6537 8.24149 63.6248 8.26715 63.5672 8.26715H63.2056C63.1782 8.27022 63.1506 8.26443 63.1268 8.25062C63.1029 8.23681 63.0842 8.21572 63.0732 8.19045ZM59.2381 1.15451V4.1468C59.2372 4.1528 59.2378 4.15892 59.2397 4.16467C59.2416 4.17042 59.2448 4.17564 59.2491 4.17992C59.2534 4.18421 59.2586 4.18743 59.2644 4.18934C59.2701 4.19125 59.2762 4.19179 59.2822 4.19092H61.4737C61.6769 4.19911 61.8795 4.16537 62.069 4.09179C62.2585 4.01822 62.4308 3.90639 62.5752 3.76329C62.7165 3.61679 62.8267 3.44322 62.8992 3.25302C62.9716 3.06283 63.0048 2.85994 62.9968 2.65657C63.0054 2.45149 62.9725 2.24678 62.9 2.05472C62.8276 1.86267 62.7171 1.68722 62.5752 1.53889C62.4308 1.39583 62.2585 1.28404 62.069 1.21052C61.8795 1.13699 61.6768 1.1033 61.4737 1.11155H59.2822C59.2762 1.11064 59.2701 1.11114 59.2644 1.11301C59.2586 1.11488 59.2533 1.11807 59.249 1.12233C59.2447 1.12658 59.2415 1.13179 59.2395 1.13753C59.2376 1.14326 59.237 1.14938 59.2378 1.15538L59.2381 1.15451Z" fill="#A4B1B6"/>
<path d="M72.8624 8.17924L72.3722 6.72159C72.3695 6.71173 72.3634 6.70312 72.3551 6.69718C72.3467 6.69125 72.3366 6.68837 72.3264 6.68901H68.7597C68.7495 6.68842 68.7394 6.69133 68.7311 6.69725C68.7228 6.70317 68.7167 6.71176 68.7139 6.72159L68.2341 8.17924C68.2239 8.20679 68.205 8.23022 68.1802 8.24586C68.1553 8.26151 68.126 8.26851 68.0968 8.26575H67.6969C67.6129 8.26575 67.5815 8.22596 67.6055 8.14522L70.143 0.683088C70.1531 0.655619 70.172 0.63226 70.1968 0.616622C70.2216 0.600985 70.2508 0.593941 70.2799 0.59658H70.7944C70.8235 0.593892 70.8528 0.600915 70.8776 0.616559C70.9023 0.632203 70.9212 0.655591 70.9313 0.683088L73.4801 8.14637L73.4916 8.19049C73.4916 8.24124 73.4576 8.2669 73.389 8.2669H73.0003C72.9708 8.26961 72.9413 8.26248 72.9164 8.24661C72.8914 8.23075 72.8725 8.20705 72.8624 8.17924ZM68.9025 6.18957C68.9131 6.20016 68.9275 6.20616 68.9426 6.2063H72.1433C72.1507 6.20628 72.158 6.2048 72.1649 6.20193C72.1717 6.19906 72.1779 6.19486 72.1831 6.18957C72.1886 6.18504 72.1923 6.1786 72.1934 6.17151C72.1944 6.16442 72.1928 6.15719 72.1888 6.15122L70.5769 1.38553C70.5739 1.37897 70.5691 1.37341 70.563 1.36951C70.5569 1.36562 70.5499 1.36355 70.5426 1.36355C70.5354 1.36355 70.5283 1.36562 70.5223 1.36951C70.5162 1.37341 70.5113 1.37897 70.5083 1.38553L68.897 6.15209C68.8932 6.15794 68.8917 6.16496 68.8927 6.17186C68.8937 6.17875 68.8972 6.18504 68.9025 6.18957Z" fill="#A4B1B6"/>
<path d="M81.738 0.706421V1.00199C81.7402 1.01687 81.7388 1.03204 81.734 1.0463C81.7293 1.06057 81.7213 1.07352 81.7106 1.08415C81.7 1.09478 81.6871 1.10279 81.6728 1.10755C81.6585 1.11231 81.6434 1.11368 81.6285 1.11156H79.437C79.431 1.11075 79.425 1.11133 79.4193 1.11324C79.4136 1.11516 79.4084 1.11837 79.4042 1.12261C79.4 1.12685 79.3968 1.13202 79.3948 1.13771C79.3929 1.1434 79.3923 1.14945 79.3932 1.15539V8.1573C79.3953 8.17219 79.3939 8.18736 79.3891 8.20162C79.3844 8.21588 79.3764 8.22884 79.3657 8.23947C79.3551 8.2501 79.3422 8.25811 79.3279 8.26287C79.3136 8.26762 79.2985 8.269 79.2836 8.26688H78.922C78.9071 8.269 78.8919 8.26762 78.8777 8.26287C78.8634 8.25811 78.8504 8.2501 78.8398 8.23947C78.8292 8.22884 78.8212 8.21588 78.8164 8.20162C78.8117 8.18736 78.8103 8.17219 78.8124 8.1573V1.15539C78.8132 1.14945 78.8126 1.1434 78.8107 1.13771C78.8088 1.13202 78.8056 1.12685 78.8014 1.12261C78.7971 1.11837 78.792 1.11516 78.7863 1.11324C78.7806 1.11133 78.7745 1.11075 78.7686 1.11156H76.6867C76.6718 1.11375 76.6566 1.11241 76.6423 1.10768C76.628 1.10294 76.615 1.09493 76.6044 1.08429C76.5937 1.07365 76.5857 1.06066 76.581 1.04637C76.5762 1.03208 76.5749 1.01688 76.5771 1.00199V0.706421C76.575 0.691538 76.5763 0.676366 76.5811 0.662105C76.5859 0.647844 76.5939 0.634886 76.6045 0.624256C76.6151 0.613626 76.6281 0.605615 76.6423 0.600858C76.6566 0.5961 76.6718 0.594727 76.6867 0.596845H81.6285C81.6434 0.594727 81.6585 0.5961 81.6728 0.600858C81.6871 0.605615 81.7 0.613626 81.7106 0.624256C81.7213 0.634886 81.7293 0.647844 81.734 0.662105C81.7388 0.676366 81.7402 0.691538 81.738 0.706421Z" fill="#A4B1B6"/>
<path d="M86.7267 8.04224C86.3517 7.8428 86.0432 7.5381 85.8391 7.16563C85.6254 6.76704 85.5179 6.32018 85.5268 5.86802V2.99626C85.518 2.54411 85.6256 2.09729 85.8391 1.69865C86.0433 1.3263 86.3518 1.02164 86.7267 0.822039C87.1369 0.607076 87.5949 0.499352 88.058 0.508882C88.5227 0.499553 88.9823 0.606926 89.3948 0.821174C89.7726 1.0206 90.0846 1.32503 90.2933 1.69778C90.5101 2.09539 90.6194 2.54264 90.6105 2.99539V5.86629C90.6195 6.31906 90.5102 6.76633 90.2933 7.1639C90.0848 7.53678 89.7727 7.84126 89.3948 8.04051C88.9824 8.25488 88.5227 8.36226 88.058 8.3528C87.5951 8.36327 87.1371 8.25643 86.7267 8.04224ZM89.488 7.31384C89.6711 7.12613 89.8137 6.90282 89.907 6.65774C90.0003 6.41266 90.0423 6.15103 90.0303 5.88907V2.9853C90.0413 2.72431 89.9988 2.46385 89.9055 2.21985C89.8122 1.97585 89.6702 1.75346 89.488 1.56629C89.2991 1.38332 89.0748 1.24084 88.8289 1.14757C88.583 1.0543 88.3207 1.01222 88.058 1.02389C87.7979 1.01268 87.5383 1.05505 87.2952 1.14835C87.0522 1.24166 86.8309 1.38391 86.6451 1.56629C86.4643 1.75423 86.3235 1.97688 86.2311 2.22077C86.1388 2.46467 86.0969 2.72475 86.1079 2.9853V5.88907C86.0911 6.15006 86.1299 6.41164 86.2219 6.65648C86.3138 6.90132 86.4568 7.12381 86.6412 7.30922C86.8257 7.49463 87.0474 7.63872 87.2918 7.73193C87.5361 7.82515 87.7975 7.86536 88.0586 7.8499C88.3207 7.86164 88.5824 7.82023 88.828 7.72815C89.0737 7.63608 89.2982 7.49496 89.488 7.31384Z" fill="#A4B1B6"/>
<path d="M99.4441 8.19051L97.8443 4.70599C97.842 4.69624 97.8363 4.6876 97.8283 4.68155C97.8203 4.6755 97.8105 4.67242 97.8005 4.67283H95.7295C95.7235 4.67201 95.7174 4.67259 95.7117 4.67452C95.706 4.67645 95.7008 4.67968 95.6966 4.68396C95.6923 4.68824 95.6891 4.69344 95.6872 4.69917C95.6853 4.70489 95.6848 4.71098 95.6857 4.71695V8.15735C95.6878 8.17223 95.6864 8.1874 95.6816 8.20166C95.6769 8.21592 95.6689 8.22888 95.6582 8.23951C95.6476 8.25014 95.6347 8.25815 95.6204 8.26291C95.6061 8.26767 95.591 8.26904 95.5761 8.26692H95.2145C95.1996 8.26904 95.1844 8.26767 95.1702 8.26291C95.1559 8.25815 95.143 8.25014 95.1323 8.23951C95.1217 8.22888 95.1137 8.21592 95.1089 8.20166C95.1042 8.1874 95.1028 8.17223 95.1049 8.15735V0.706465C95.1028 0.691582 95.1042 0.676409 95.1089 0.662149C95.1137 0.647888 95.1217 0.63493 95.1323 0.6243C95.143 0.613669 95.1559 0.605659 95.1702 0.600901C95.1844 0.596144 95.1996 0.59477 95.2145 0.596889H97.9758C98.2491 0.585103 98.5219 0.629568 98.7774 0.727531C99.0328 0.825494 99.2654 0.974867 99.4608 1.1664C99.6506 1.36383 99.7984 1.59766 99.8954 1.85377C99.9924 2.10989 100.037 2.383 100.025 2.65663C100.04 3.12972 99.889 3.59314 99.5975 3.96606C99.3097 4.32242 98.8995 4.55885 98.4469 4.62929C98.4103 4.64428 98.3994 4.66216 98.4141 4.68436L100.014 8.13572C100.022 8.15301 100.025 8.17184 100.025 8.1908C100.025 8.24155 99.8388 8.26721 99.9383 8.26721H99.5761C99.5488 8.27017 99.5213 8.26433 99.4975 8.25053C99.4738 8.23673 99.455 8.2157 99.4441 8.19051ZM95.6857 1.15457V4.14686C95.6848 4.15283 95.6853 4.15892 95.6872 4.16464C95.6891 4.17037 95.6923 4.17558 95.6966 4.17985C95.7008 4.18413 95.706 4.18736 95.7117 4.18929C95.7174 4.19123 95.7235 4.1918 95.7295 4.19098H97.921C98.1241 4.1992 98.3267 4.16547 98.5162 4.09189C98.7056 4.01832 98.8779 3.90647 99.0222 3.76335C99.1636 3.6169 99.2738 3.44335 99.3464 3.25315C99.4189 3.06294 99.4521 2.86003 99.4441 2.65663C99.4527 2.45152 99.4197 2.24679 99.3472 2.05472C99.2747 1.86266 99.1642 1.68723 99.0222 1.53895C98.8779 1.39587 98.7056 1.28407 98.5161 1.21054C98.3266 1.13701 98.1241 1.10334 97.921 1.11161H95.7295C95.7235 1.1108 95.7175 1.11137 95.7118 1.11329C95.7061 1.1152 95.701 1.11841 95.6967 1.12265C95.6925 1.1269 95.6893 1.13206 95.6873 1.13775C95.6854 1.14344 95.6848 1.14949 95.6857 1.15544V1.15457Z" fill="#A4B1B6"/>
<path d="M31.6304 19.1965C31.2608 19.0091 30.9542 18.7177 30.7483 18.3582C30.5354 17.9788 30.4276 17.5495 30.436 17.1145V13.9916C30.4267 13.56 30.5346 13.134 30.7483 12.7589C30.9569 12.4042 31.2631 12.117 31.6304 11.9316C32.0395 11.7377 32.4864 11.6367 32.9392 11.6357C33.3919 11.6348 33.8393 11.7339 34.2492 11.9261C34.6158 12.1074 34.9222 12.3909 35.1313 12.7424C35.3445 13.1118 35.4525 13.5324 35.4436 13.9587V13.9697C35.4442 13.9856 35.4416 14.0014 35.4359 14.0163C35.4303 14.0312 35.4217 14.0447 35.4107 14.0562C35.4008 14.0666 35.3888 14.0749 35.3756 14.0806C35.3624 14.0863 35.3481 14.0891 35.3337 14.0891L34.9724 14.111C34.9575 14.1131 34.9423 14.1117 34.9281 14.107C34.9138 14.1022 34.9009 14.0942 34.8902 14.0836C34.8796 14.073 34.8716 14.06 34.8668 14.0457C34.8621 14.0315 34.8607 14.0163 34.8628 14.0014V13.9685C34.8734 13.7238 34.8319 13.4795 34.7412 13.2519C34.6505 13.0243 34.5126 12.8186 34.3366 12.6481C33.9424 12.3257 33.4489 12.1495 32.9396 12.1495C32.4304 12.1495 31.9369 12.3257 31.5427 12.6481C31.3668 12.8186 31.229 13.0244 31.1383 13.252C31.0477 13.4796 31.0062 13.7238 31.0168 13.9685V17.1471C31.0066 17.3932 31.0487 17.6387 31.1403 17.8673C31.2319 18.096 31.3709 18.3026 31.5482 18.4736C31.9289 18.8197 32.4312 19.001 32.9453 18.9776C33.199 18.9895 33.4525 18.9511 33.6913 18.8646C33.9301 18.7781 34.1494 18.6452 34.3366 18.4736C34.5125 18.3018 34.6503 18.0949 34.7409 17.8664C34.8316 17.6378 34.8731 17.3928 34.8628 17.1471V17.1252C34.8628 17.0595 34.8993 17.0266 34.9724 17.0266L35.3337 17.0485C35.4067 17.0485 35.4436 17.0814 35.4436 17.1471C35.452 17.5751 35.3441 17.9974 35.1313 18.3689C34.9227 18.7236 34.6165 19.0107 34.2492 19.1962C33.8402 19.391 33.3928 19.492 32.9398 19.492C32.4867 19.492 32.0394 19.3913 31.6304 19.1965Z" fill="#A4B1B6"/>
<path d="M40.6655 19.1691C40.2906 18.9695 39.9822 18.6648 39.7779 18.2925C39.5642 17.8939 39.4567 17.447 39.4656 16.9949V14.1231C39.4568 13.671 39.5643 13.2241 39.7779 12.8255C39.9822 12.4532 40.2906 12.1485 40.6655 11.9489C41.0758 11.7342 41.5338 11.6268 41.9968 11.6366C42.4615 11.6273 42.9211 11.7346 43.3336 11.9489C43.7116 12.1481 44.0237 12.4526 44.2321 12.8255C44.4489 13.2231 44.5582 13.6704 44.5493 14.1231V16.994C44.5583 17.4468 44.449 17.8941 44.2321 18.2916C44.0237 18.6646 43.7116 18.9691 43.3336 19.1682C42.9211 19.3825 42.4615 19.4899 41.9968 19.4805C41.5339 19.4906 41.0759 19.3835 40.6655 19.1691ZM43.4267 18.4404C43.6099 18.2528 43.7525 18.0295 43.8458 17.7845C43.9391 17.5394 43.9811 17.2778 43.9691 17.0159V14.1122C43.9803 13.8477 43.9378 13.5838 43.8442 13.3362C43.7507 13.0886 43.6081 12.8625 43.4249 12.6715C43.2417 12.4804 43.0218 12.3284 42.7784 12.2246C42.5349 12.1207 42.273 12.0672 42.0083 12.0672C41.7437 12.0672 41.4817 12.1207 41.2383 12.2246C40.9949 12.3284 40.775 12.4804 40.5918 12.6715C40.4086 12.8625 40.266 13.0886 40.1724 13.3362C40.0789 13.5838 40.0364 13.8477 40.0475 14.1122V17.0159C40.0571 17.4032 40.1782 17.7794 40.3964 18.0995C40.6146 18.4196 40.9205 18.6699 41.2775 18.8203C41.6345 18.9707 42.0273 19.0149 42.4087 18.9475C42.7902 18.8801 43.1441 18.704 43.4279 18.4404H43.4267Z" fill="#A4B1B6"/>
<path d="M49.2758 19.2842V11.833C49.2736 11.8181 49.275 11.8029 49.2798 11.7887C49.2845 11.7744 49.2925 11.7615 49.3032 11.7508C49.3138 11.7402 49.3268 11.7322 49.341 11.7274C49.3553 11.7227 49.3704 11.7213 49.3853 11.7234H49.7484C49.7632 11.7213 49.7784 11.7228 49.7926 11.7275C49.8068 11.7323 49.8197 11.7403 49.8303 11.751C49.8409 11.7616 49.8489 11.7745 49.8536 11.7888C49.8584 11.803 49.8598 11.8181 49.8577 11.833V18.8346C49.8568 18.8406 49.8573 18.8466 49.8592 18.8524C49.8611 18.8581 49.8643 18.8633 49.8686 18.8675C49.8728 18.8718 49.878 18.875 49.8837 18.8769C49.8894 18.8788 49.8955 18.8793 49.9015 18.8784H54.1091C54.124 18.8763 54.1392 18.8777 54.1535 18.8825C54.1678 18.8872 54.1807 18.8952 54.1914 18.9059C54.202 18.9165 54.2101 18.9294 54.2149 18.9437C54.2197 18.9579 54.2211 18.9731 54.219 18.988V19.2842C54.2211 19.2991 54.2197 19.3142 54.2149 19.3285C54.2101 19.3427 54.202 19.3557 54.1914 19.3663C54.1807 19.3769 54.1678 19.3849 54.1535 19.3897C54.1392 19.3945 54.124 19.3958 54.1091 19.3937H49.3853C49.3704 19.3959 49.3553 19.3945 49.341 19.3897C49.3268 19.385 49.3138 19.377 49.3032 19.3663C49.2925 19.3557 49.2845 19.3427 49.2798 19.3285C49.275 19.3142 49.2736 19.299 49.2758 19.2842Z" fill="#A4B1B6"/>
<path d="M58.6461 19.2842V11.833C58.644 11.8181 58.6454 11.8029 58.6502 11.7887C58.6549 11.7744 58.6629 11.7615 58.6736 11.7508C58.6842 11.7402 58.6971 11.7322 58.7114 11.7274C58.7257 11.7227 58.7408 11.7213 58.7557 11.7234H59.1173C59.1322 11.7213 59.1473 11.7228 59.1615 11.7275C59.1758 11.7323 59.1887 11.7403 59.1993 11.751C59.2099 11.7616 59.2178 11.7745 59.2226 11.7888C59.2273 11.803 59.2287 11.8181 59.2266 11.833V18.8346C59.2258 18.8406 59.2264 18.8467 59.2283 18.8524C59.2302 18.8581 59.2334 18.8633 59.2377 18.8675C59.242 18.8718 59.2472 18.875 59.2529 18.8769C59.2587 18.8788 59.2647 18.8793 59.2707 18.8784H63.4781C63.493 18.8763 63.5082 18.8777 63.5224 18.8825C63.5367 18.8872 63.5497 18.8952 63.5603 18.9059C63.571 18.9165 63.579 18.9294 63.5838 18.9437C63.5886 18.9579 63.59 18.9731 63.588 18.988V19.2842C63.59 19.2991 63.5886 19.3142 63.5838 19.3285C63.579 19.3427 63.571 19.3557 63.5603 19.3663C63.5497 19.3769 63.5367 19.3849 63.5224 19.3897C63.5082 19.3945 63.493 19.3958 63.4781 19.3937H58.7557C58.7408 19.3959 58.7257 19.3945 58.7114 19.3897C58.6971 19.385 58.6842 19.377 58.6736 19.3663C58.6629 19.3557 58.6549 19.3427 58.6502 19.3285C58.6454 19.3142 58.644 19.299 58.6461 19.2842Z" fill="#A4B1B6"/>
<path d="M72.4777 12.2384H68.3254C68.3195 12.2376 68.3134 12.2382 68.3078 12.2401C68.3021 12.242 68.2969 12.2452 68.2927 12.2495C68.2884 12.2537 68.2852 12.2589 68.2833 12.2646C68.2814 12.2703 68.2808 12.2763 68.2816 12.2823V15.2408C68.2808 15.2468 68.2814 15.2528 68.2833 15.2585C68.2852 15.2642 68.2884 15.2694 68.2927 15.2736C68.2969 15.2778 68.3021 15.281 68.3078 15.283C68.3134 15.2849 68.3195 15.2855 68.3254 15.2846H71.273C71.2879 15.2825 71.3031 15.2839 71.3173 15.2887C71.3316 15.2934 71.3445 15.3014 71.3552 15.3121C71.3658 15.3227 71.3738 15.3356 71.3786 15.3499C71.3833 15.3642 71.3847 15.3793 71.3826 15.3942V15.6901C71.3847 15.705 71.3833 15.7201 71.3786 15.7344C71.3738 15.7486 71.3658 15.7616 71.3552 15.7722C71.3445 15.7829 71.3316 15.7909 71.3173 15.7956C71.3031 15.8004 71.2879 15.8018 71.273 15.7996H68.3246C68.3186 15.7988 68.3125 15.7994 68.3068 15.8013C68.3011 15.8033 68.2959 15.8065 68.2917 15.8108C68.2874 15.8151 68.2842 15.8203 68.2823 15.826C68.2804 15.8317 68.2799 15.8378 68.2808 15.8438V18.8349C68.2799 18.8409 68.2805 18.8469 68.2824 18.8526C68.2844 18.8583 68.2876 18.8634 68.2918 18.8677C68.296 18.8719 68.3012 18.8751 68.3069 18.8771C68.3126 18.879 68.3186 18.8795 68.3246 18.8787H72.4769C72.4918 18.8766 72.5069 18.878 72.5212 18.8827C72.5354 18.8875 72.5484 18.8955 72.559 18.9061C72.5696 18.9168 72.5776 18.9297 72.5823 18.944C72.587 18.9583 72.5883 18.9734 72.5862 18.9883V19.2842C72.5883 19.299 72.587 19.3142 72.5823 19.3285C72.5776 19.3427 72.5696 19.3557 72.559 19.3663C72.5484 19.377 72.5354 19.385 72.5212 19.3897C72.5069 19.3945 72.4918 19.3959 72.4769 19.3937H67.8096C67.7947 19.3959 67.7795 19.3945 67.7653 19.3897C67.751 19.385 67.738 19.377 67.7274 19.3663C67.7168 19.3557 67.7088 19.3427 67.704 19.3285C67.6993 19.3142 67.6979 19.299 67.7 19.2842V11.833C67.6979 11.8181 67.6993 11.8029 67.704 11.7887C67.7088 11.7744 67.7168 11.7615 67.7274 11.7508C67.738 11.7402 67.751 11.7322 67.7653 11.7274C67.7795 11.7227 67.7947 11.7213 67.8096 11.7234H72.4777C72.4926 11.7213 72.5078 11.7227 72.522 11.7274C72.5363 11.7322 72.5492 11.7402 72.5598 11.7508C72.5705 11.7615 72.5784 11.7744 72.5832 11.7887C72.5879 11.803 72.5892 11.8181 72.587 11.833V12.1297C72.5891 12.1445 72.5876 12.1596 72.5828 12.1737C72.578 12.1879 72.57 12.2007 72.5594 12.2113C72.5489 12.2218 72.536 12.2297 72.5218 12.2345C72.5076 12.2392 72.4925 12.2405 72.4777 12.2384Z" fill="#A4B1B6"/>
<path d="M77.8918 19.1965C77.5223 19.0091 77.2158 18.7177 77.01 18.3582C76.7972 17.9788 76.6894 17.5495 76.6977 17.1145V13.9916C76.6885 13.56 76.7964 13.134 77.01 12.7589C77.2185 12.4042 77.5246 12.117 77.8918 11.9316C78.3009 11.7377 78.7478 11.6367 79.2006 11.6357C79.6533 11.6348 80.1007 11.7339 80.5106 11.9261C80.8774 12.1073 81.1838 12.3908 81.393 12.7424C81.606 13.1118 81.7139 13.5324 81.7053 13.9587V13.9697C81.7059 13.9856 81.7033 14.0014 81.6976 14.0163C81.692 14.0312 81.6834 14.0447 81.6724 14.0562C81.6625 14.0666 81.6506 14.0748 81.6374 14.0805C81.6242 14.0861 81.61 14.0891 81.5957 14.0891L81.2341 14.111C81.2192 14.1132 81.204 14.1118 81.1897 14.1071C81.1754 14.1024 81.1624 14.0943 81.1517 14.0837C81.1411 14.0731 81.133 14.0601 81.1283 14.0458C81.1235 14.0315 81.1221 14.0163 81.1242 14.0014V13.9685C81.1348 13.7238 81.0934 13.4796 81.0028 13.252C80.9122 13.0244 80.7745 12.8186 80.5986 12.6481C80.2043 12.3257 79.7107 12.1496 79.2013 12.1496C78.692 12.1496 78.1984 12.3257 77.8041 12.6481C77.6282 12.8187 77.4904 13.0245 77.3998 13.252C77.3091 13.4796 77.2677 13.7238 77.2782 13.9685V17.1471C77.268 17.3932 77.3101 17.6387 77.4018 17.8674C77.4935 18.096 77.6325 18.3026 77.8099 18.4736C78.2015 18.7993 78.6948 18.9776 79.2042 18.9776C79.7136 18.9776 80.2069 18.7993 80.5986 18.4736C80.7743 18.3017 80.912 18.0948 81.0025 17.8663C81.0931 17.6377 81.1346 17.3927 81.1242 17.1471V17.1252C81.1242 17.0595 81.1608 17.0266 81.2341 17.0266L81.5957 17.0485C81.6687 17.0485 81.7053 17.0814 81.7053 17.1471C81.7135 17.5751 81.6056 17.9973 81.393 18.3689C81.1844 18.7236 80.8781 19.0108 80.5106 19.1962C80.1016 19.391 79.6542 19.492 79.2012 19.492C78.7481 19.492 78.3008 19.3913 77.8918 19.1965Z" fill="#A4B1B6"/>
<path d="M90.6877 11.833V12.1297C90.6898 12.1446 90.6885 12.1598 90.6837 12.174C90.679 12.1883 90.6709 12.2013 90.6603 12.2119C90.6497 12.2225 90.6367 12.2305 90.6225 12.2353C90.6082 12.24 90.593 12.2414 90.5782 12.2393H88.3867C88.3807 12.2384 88.3746 12.239 88.3689 12.2409C88.3632 12.2428 88.3579 12.246 88.3537 12.2502C88.3494 12.2545 88.3462 12.2596 88.3442 12.2654C88.3423 12.2711 88.3417 12.2771 88.3425 12.2831V19.2842C88.3447 19.299 88.3433 19.3142 88.3385 19.3285C88.3338 19.3427 88.3258 19.3557 88.3151 19.3663C88.3045 19.377 88.2916 19.385 88.2773 19.3897C88.263 19.3945 88.2479 19.3959 88.233 19.3937H87.8714C87.8565 19.3959 87.8413 19.3945 87.8271 19.3897C87.8128 19.385 87.7998 19.377 87.7892 19.3663C87.7786 19.3557 87.7706 19.3427 87.7658 19.3285C87.7611 19.3142 87.7597 19.299 87.7618 19.2842V12.2823C87.7627 12.2763 87.7621 12.2702 87.7602 12.2645C87.7584 12.2588 87.7551 12.2536 87.7509 12.2493C87.7466 12.2451 87.7414 12.2419 87.7357 12.24C87.73 12.2381 87.7239 12.2376 87.718 12.2384H85.636C85.6212 12.2406 85.606 12.2392 85.5918 12.2344C85.5775 12.2297 85.5646 12.2217 85.554 12.211C85.5433 12.2004 85.5354 12.1874 85.5306 12.1732C85.5259 12.1589 85.5246 12.1437 85.5268 12.1289V11.833C85.5246 11.8181 85.5259 11.803 85.5306 11.7887C85.5354 11.7744 85.5433 11.7615 85.554 11.7508C85.5646 11.7402 85.5775 11.7322 85.5918 11.7274C85.606 11.7227 85.6212 11.7213 85.636 11.7234H90.5796C90.5944 11.7215 90.6094 11.7231 90.6234 11.728C90.6375 11.7328 90.6503 11.7409 90.6607 11.7515C90.6712 11.7621 90.6791 11.775 90.6838 11.7891C90.6884 11.8032 90.6898 11.8182 90.6877 11.833Z" fill="#A4B1B6"/>
<path d="M95.1049 19.2842V11.833C95.1028 11.8181 95.1042 11.8029 95.1089 11.7887C95.1137 11.7744 95.1217 11.7615 95.1323 11.7508C95.143 11.7402 95.1559 11.7322 95.1702 11.7274C95.1844 11.7227 95.1996 11.7213 95.2145 11.7234H95.5761C95.591 11.7213 95.6061 11.7227 95.6204 11.7274C95.6347 11.7322 95.6476 11.7402 95.6582 11.7508C95.6689 11.7615 95.6769 11.7744 95.6816 11.7887C95.6864 11.8029 95.6878 11.8181 95.6857 11.833V19.2842C95.6878 19.299 95.6864 19.3142 95.6816 19.3285C95.6769 19.3427 95.6689 19.3557 95.6582 19.3663C95.6476 19.377 95.6347 19.385 95.6204 19.3897C95.6061 19.3945 95.591 19.3959 95.5761 19.3937H95.2145C95.1996 19.3959 95.1844 19.3945 95.1702 19.3897C95.1559 19.385 95.143 19.377 95.1323 19.3663C95.1217 19.3557 95.1137 19.3427 95.1089 19.3285C95.1042 19.3142 95.1028 19.299 95.1049 19.2842Z" fill="#A4B1B6"/>
<path d="M102.247 19.3116L99.5365 11.8494L99.5256 11.8056C99.5256 11.7547 99.5585 11.7291 99.6242 11.7289H100.008C100.036 11.7266 100.064 11.7339 100.088 11.7496C100.112 11.7652 100.13 11.7884 100.139 11.8154L102.554 18.4993C102.556 18.5058 102.561 18.5115 102.566 18.5155C102.572 18.5194 102.579 18.5215 102.586 18.5215C102.593 18.5216 102.6 18.5195 102.606 18.5155C102.612 18.5116 102.617 18.5059 102.619 18.4993L105.055 11.8166C105.064 11.7895 105.082 11.7663 105.106 11.7507C105.13 11.735 105.158 11.7277 105.187 11.7301H105.548C105.628 11.7301 105.658 11.7701 105.635 11.8506L102.915 19.3116C102.906 19.3386 102.888 19.3618 102.865 19.3775C102.841 19.3932 102.812 19.4004 102.784 19.3981H102.379C102.35 19.4004 102.322 19.3932 102.298 19.3775C102.274 19.3618 102.256 19.3386 102.247 19.3116Z" fill="#A4B1B6"/>
<path d="M114.224 12.2384H110.072C110.066 12.2376 110.06 12.2381 110.054 12.24C110.049 12.2419 110.043 12.2451 110.039 12.2493C110.035 12.2536 110.032 12.2588 110.03 12.2645C110.028 12.2702 110.027 12.2763 110.028 12.2822V15.2408C110.027 15.2468 110.028 15.2529 110.03 15.2586C110.032 15.2643 110.035 15.2695 110.039 15.2737C110.043 15.278 110.049 15.2812 110.054 15.2831C110.06 15.285 110.066 15.2855 110.072 15.2846H113.019C113.034 15.2825 113.049 15.2839 113.064 15.2886C113.078 15.2934 113.091 15.3014 113.101 15.312C113.112 15.3227 113.12 15.3356 113.125 15.3499C113.13 15.3642 113.131 15.3793 113.129 15.3942V15.6901C113.131 15.7049 113.13 15.7201 113.125 15.7344C113.12 15.7486 113.112 15.7616 113.101 15.7722C113.091 15.7829 113.078 15.7909 113.064 15.7956C113.049 15.8004 113.034 15.8018 113.019 15.7996H110.07C110.064 15.7988 110.058 15.7993 110.052 15.8012C110.047 15.8031 110.041 15.8064 110.037 15.8106C110.033 15.8149 110.03 15.8201 110.028 15.8259C110.026 15.8316 110.025 15.8378 110.026 15.8438V18.8349C110.025 18.8409 110.026 18.847 110.028 18.8527C110.03 18.8584 110.033 18.8636 110.037 18.8678C110.042 18.8721 110.047 18.8753 110.053 18.8772C110.058 18.879 110.064 18.8796 110.07 18.8787H114.223C114.238 18.8766 114.253 18.878 114.267 18.8827C114.281 18.8875 114.294 18.8955 114.305 18.9061C114.315 18.9168 114.323 18.9297 114.328 18.944C114.333 18.9582 114.334 18.9734 114.332 18.9883V19.2842C114.334 19.299 114.333 19.3142 114.328 19.3285C114.323 19.3427 114.315 19.3557 114.305 19.3663C114.294 19.377 114.281 19.385 114.267 19.3897C114.253 19.3945 114.238 19.3959 114.223 19.3937H109.555C109.54 19.3959 109.525 19.3945 109.511 19.3897C109.496 19.385 109.484 19.377 109.473 19.3663C109.462 19.3557 109.454 19.3427 109.449 19.3285C109.445 19.3142 109.443 19.299 109.445 19.2842V11.833C109.443 11.8181 109.445 11.8029 109.449 11.7887C109.454 11.7744 109.462 11.7615 109.473 11.7508C109.484 11.7402 109.496 11.7322 109.511 11.7274C109.525 11.7227 109.54 11.7213 109.555 11.7234H114.224C114.239 11.7213 114.254 11.7227 114.269 11.7274C114.283 11.7322 114.296 11.7402 114.307 11.7508C114.317 11.7615 114.325 11.7744 114.33 11.7887C114.335 11.8029 114.336 11.8181 114.334 11.833V12.1297C114.336 12.1445 114.334 12.1596 114.33 12.1737C114.325 12.1879 114.317 12.2007 114.306 12.2113C114.296 12.2218 114.283 12.2297 114.268 12.2344C114.254 12.2391 114.239 12.2405 114.224 12.2384Z" fill="#A4B1B6"/>
<path d="M18.1184 16.5357L18.1184 16.5356L18.1152 16.5386C17.1091 17.4498 15.9283 18.1316 14.6504 18.5401C12.8509 19.105 10.946 19.2146 9.09686 18.8598L9.09686 18.8598L9.09177 18.8589C7.48303 18.5703 5.35781 17.1968 3.34698 14.5064C1.62191 12.1981 1.21799 9.65646 1.88078 7.40638C2.54484 5.15202 4.29297 3.14736 6.95362 1.95268C9.4957 0.811329 12.7382 0.634393 15.4475 1.56054C18.141 2.48133 20.2734 4.47467 20.7204 7.67647L20.7202 7.6765L20.7222 7.68848C21.2652 10.9086 20.5779 14.353 18.1184 16.5357Z" stroke="#A4B1B6" stroke-width="0.857143"/>
<path d="M18.9531 13.7004L18.9514 13.7095L18.9502 13.7186C18.5924 16.3496 16.8749 17.7648 14.8633 18.4721C12.832 19.1863 10.549 19.154 9.23773 18.8925L9.23772 18.8925C6.42662 18.332 3.92202 15.8499 3.45557 12.9167C3.04117 10.2849 4.33394 8.19557 6.36677 6.82391C8.4116 5.44415 11.1603 4.82989 13.5016 5.17531C15.2188 5.42873 17.3069 6.50936 18.2187 8.15649L18.2188 8.15673C19.0705 9.69295 19.2878 11.8417 18.9531 13.7004Z" stroke="#A4B1B6" stroke-width="0.857143"/>
<path d="M15.3178 18.2597L15.3155 18.26C12.4073 18.6178 10.1162 17.1098 8.90087 15.0579C7.67492 12.9881 7.59167 10.4617 8.96687 8.79008C10.2575 7.22643 12.3809 6.11306 14.5959 5.81686C16.8061 5.52131 19.0483 6.04489 20.6269 7.6702L20.6268 7.67022L20.6296 7.67301C20.6901 7.73411 20.7318 7.81493 20.7467 7.90468C20.8548 8.59922 21.0932 10.4772 20.538 12.528C19.9873 14.5622 18.6546 16.7776 15.5828 18.1864C15.4982 18.2244 15.4089 18.249 15.3178 18.2597Z" stroke="#A4B1B6" stroke-width="0.857143"/>
</g>
<defs>
<clipPath id="clip0_6789_13697">
<rect width="113.022" height="18.8571" fill="white" transform="translate(0.933167 0.571289)"/>
</clipPath>
</defs>
</svg>
