<svg width="87" height="22" viewBox="0 0 87 22" fill="none" xmlns="http://www.w3.org/2000/svg">
<path d="M11.6177 0.0116598C11.4577 -0.00388534 11.2965 -0.00388661 11.1365 0.011656L11.1959 2.77782C11.2561 2.77653 11.3165 2.77588 11.3771 2.77588C11.4377 2.77588 11.4981 2.77653 11.5583 2.77782L11.6177 0.0116598Z" fill="#A4B1B6"/>
<path d="M9.77367 0.588157C9.90875 0.473644 10.053 0.375852 10.2038 0.294782L10.4778 2.82423C10.3584 2.83717 10.2398 2.85265 10.1221 2.87062L9.77367 0.588157Z" fill="#A4B1B6"/>
<path d="M8.99117 1.25498L8.62628 1.56594L9.07335 3.10212C9.18759 3.06888 9.30287 3.03804 9.41914 3.00969L8.99117 1.25498Z" fill="#A4B1B6"/>
<path d="M7.5274 2.24906C7.65991 2.20679 7.78864 2.15344 7.9122 2.08958L8.39576 3.33208C8.28436 3.37543 8.17411 3.42117 8.06507 3.46921L7.5274 2.24906Z" fill="#A4B1B6"/>
<path d="M6.65163 2.38398L6.17334 2.42215L7.11227 3.9662C7.21436 3.90413 7.31787 3.84423 7.42274 3.78658L6.65163 2.38398Z" fill="#A4B1B6"/>
<path d="M4.6364 2.60081C4.80043 2.55145 4.97168 2.51853 5.14825 2.50396L6.51559 4.36566C6.41899 4.43661 6.32398 4.50962 6.23062 4.58465L4.6364 2.60081Z" fill="#A4B1B6"/>
<path d="M3.77663 3.06043C3.65295 3.16228 3.53934 3.27589 3.43749 3.39957L5.43596 5.3132C5.51888 5.2266 5.60367 5.14181 5.69026 5.0589L3.77663 3.06043Z" fill="#A4B1B6"/>
<path fill-rule="evenodd" clip-rule="evenodd" d="M10.5707 14.7182H9.00985V7.43936H11.9086C13.6012 7.43936 14.6249 8.44277 14.6249 9.89213V9.9124C14.6249 11.5543 13.3478 12.4057 11.7566 12.4057H10.5707V14.7182ZM10.5707 8.84818V11.0172H11.8072C12.5877 11.0172 13.0438 10.5509 13.0438 9.94281V9.92254C13.0438 9.22319 12.5573 8.84818 11.7768 8.84818H10.5707Z" fill="#A4B1B6"/>
<path fill-rule="evenodd" clip-rule="evenodd" d="M11.3771 17.1783C14.7895 17.1783 17.5558 14.412 17.5558 10.9996C17.5558 7.58728 14.7895 4.82102 11.3771 4.82102C7.96473 4.82102 5.19845 7.58728 5.19845 10.9996C5.19845 14.412 7.96473 17.1783 11.3771 17.1783ZM11.3771 17.0182C14.7011 17.0182 17.3957 14.3236 17.3957 10.9996C17.3957 7.67566 14.7011 4.98105 11.3771 4.98105C8.05312 4.98105 5.35849 7.67566 5.35849 10.9996C5.35849 14.3236 8.05312 17.0182 11.3771 17.0182Z" fill="#A4B1B6"/>
<path fill-rule="evenodd" clip-rule="evenodd" d="M11.3771 18.2766C15.3961 18.2766 18.6542 15.0186 18.6542 10.9996C18.6542 6.98061 15.3961 3.72256 11.3771 3.72256C7.35806 3.72256 4.09999 6.98061 4.09999 10.9996C4.09999 15.0186 7.35806 18.2766 11.3771 18.2766ZM11.3771 17.8766C15.1751 17.8766 18.2541 14.7976 18.2541 10.9996C18.2541 7.20157 15.1751 4.12265 11.3771 4.12265C7.57902 4.12265 4.50008 7.20157 4.50008 10.9996C4.50008 14.7976 7.57902 17.8766 11.3771 17.8766Z" fill="#A4B1B6"/>
<path d="M1.94298 8.2492L1.63202 8.61408L3.38674 9.04205C3.4151 8.92578 3.44593 8.8105 3.47917 8.69626L1.94298 8.2492Z" fill="#A4B1B6"/>
<path d="M2.46662 7.53512C2.53048 7.41155 2.58383 7.28282 2.6261 7.15031L3.84627 7.68799C3.79822 7.79702 3.75249 7.90727 3.70913 8.01868L2.46662 7.53512Z" fill="#A4B1B6"/>
<path d="M2.79918 5.79626L2.76102 6.27454L4.16363 7.04566C4.22129 6.94079 4.28118 6.83728 4.34326 6.73519L2.79918 5.79626Z" fill="#A4B1B6"/>
<path d="M2.88099 4.77117C2.89557 4.5946 2.92849 4.42335 2.97785 4.25933L4.96171 5.85355C4.88669 5.94691 4.81367 6.04192 4.74273 6.13851L2.88099 4.77117Z" fill="#A4B1B6"/>
<path d="M12.5504 0.294803C12.7012 0.375876 12.8455 0.47367 12.9805 0.588187L12.6321 2.87062C12.5144 2.85265 12.3958 2.83717 12.2764 2.82423L12.5504 0.294803Z" fill="#A4B1B6"/>
<path d="M14.1279 1.56596L13.763 1.25501L13.3351 3.00969C13.4513 3.03804 13.5666 3.06888 13.6809 3.10212L14.1279 1.56596Z" fill="#A4B1B6"/>
<path d="M14.842 2.0896C14.9656 2.15345 15.0943 2.2068 15.2268 2.24907L14.6891 3.46921C14.5801 3.42117 14.4698 3.37544 14.3584 3.33208L14.842 2.0896Z" fill="#A4B1B6"/>
<path d="M16.5809 2.42215L16.1026 2.38399L15.3315 3.78658C15.4363 3.84423 15.5399 3.90413 15.6419 3.96621L16.5809 2.42215Z" fill="#A4B1B6"/>
<path d="M17.606 2.50397C17.7825 2.51854 17.9538 2.55146 18.1178 2.60083L16.5236 4.58465C16.4302 4.50962 16.3352 4.43661 16.2386 4.36567L17.606 2.50397Z" fill="#A4B1B6"/>
<path d="M19.3167 3.39959C19.2148 3.27591 19.1012 3.1623 18.9776 3.06045L17.0639 5.0589C17.1505 5.14182 17.2353 5.2266 17.3182 5.3132L19.3167 3.39959Z" fill="#A4B1B6"/>
<path d="M19.7763 4.25936C19.8257 4.42338 19.8586 4.59463 19.8732 4.7712L18.0115 6.13851C17.9405 6.04192 17.8675 5.94691 17.7925 5.85355L19.7763 4.25936Z" fill="#A4B1B6"/>
<path d="M19.9932 6.27457L19.955 5.79628L18.4109 6.73519C18.473 6.83728 18.5329 6.94079 18.5906 7.04566L19.9932 6.27457Z" fill="#A4B1B6"/>
<path d="M20.1281 7.15033C20.1703 7.28284 20.2237 7.41156 20.2876 7.53513L19.0451 8.01868C19.0017 7.90727 18.956 7.79702 18.9079 7.68799L20.1281 7.15033Z" fill="#A4B1B6"/>
<path d="M21.1221 8.61409L20.8112 8.24921L19.275 8.69626C19.3083 8.8105 19.3391 8.92578 19.3675 9.04205L21.1221 8.61409Z" fill="#A4B1B6"/>
<path d="M21.789 9.39658C21.9035 9.53166 22.0013 9.67594 22.0824 9.82674L19.5529 10.1007C19.54 9.98127 19.5245 9.86269 19.5065 9.74502L21.789 9.39658Z" fill="#A4B1B6"/>
<path d="M22.3655 10.7594L19.5993 10.8188C19.6006 10.879 19.6013 10.9394 19.6013 11C19.6013 11.0606 19.6006 11.121 19.5993 11.1812L22.3655 11.2406C22.381 11.0806 22.381 10.9194 22.3655 10.7594Z" fill="#A4B1B6"/>
<path d="M22.0824 12.1733C22.0013 12.3241 21.9035 12.4683 21.789 12.6034L19.5065 12.255C19.5245 12.1373 19.54 12.0187 19.5529 11.8993L22.0824 12.1733Z" fill="#A4B1B6"/>
<path d="M20.8112 13.7508L21.1221 13.3859L19.3675 12.958C19.3391 13.0742 19.3083 13.1895 19.275 13.3037L20.8112 13.7508Z" fill="#A4B1B6"/>
<path d="M20.2876 14.4649C20.2237 14.5884 20.1703 14.7172 20.1281 14.8497L18.9079 14.312C18.956 14.203 19.0017 14.0927 19.0451 13.9813L20.2876 14.4649Z" fill="#A4B1B6"/>
<path d="M19.955 16.2037L19.9932 15.7254L18.5906 14.9543C18.5329 15.0592 18.473 15.1627 18.4109 15.2648L19.955 16.2037Z" fill="#A4B1B6"/>
<path d="M19.8732 17.2288C19.8586 17.4054 19.8257 17.5766 19.7763 17.7406L17.7925 16.1465C17.8675 16.0531 17.9405 15.9581 18.0115 15.8615L19.8732 17.2288Z" fill="#A4B1B6"/>
<path d="M18.9776 18.9395C19.1012 18.8377 19.2148 18.7241 19.3167 18.6004L17.3182 16.6868C17.2353 16.7734 17.1505 16.8582 17.0639 16.9411L18.9776 18.9395Z" fill="#A4B1B6"/>
<path d="M18.1178 19.3992C17.9538 19.4485 17.7825 19.4815 17.606 19.496L16.2386 17.6343C16.3352 17.5634 16.4302 17.4904 16.5236 17.4154L18.1178 19.3992Z" fill="#A4B1B6"/>
<path d="M16.1026 19.616L16.5809 19.5778L15.6419 18.0338C15.5399 18.0959 15.4363 18.1558 15.3315 18.2134L16.1026 19.616Z" fill="#A4B1B6"/>
<path d="M15.2268 19.7509C15.0943 19.7932 14.9656 19.8465 14.842 19.9104L14.3584 18.6679C14.4698 18.6246 14.5801 18.5788 14.6891 18.5308L15.2268 19.7509Z" fill="#A4B1B6"/>
<path d="M13.763 20.745L14.1279 20.434L13.6809 18.8979C13.5666 18.9311 13.4513 18.962 13.3351 18.9903L13.763 20.745Z" fill="#A4B1B6"/>
<path d="M12.9805 21.4118C12.8455 21.5263 12.7012 21.6241 12.5504 21.7052L12.2764 19.1758C12.3958 19.1628 12.5144 19.1473 12.6321 19.1294L12.9805 21.4118Z" fill="#A4B1B6"/>
<path d="M11.1365 21.9883C11.2965 22.0039 11.4577 22.0039 11.6177 21.9883L11.5583 19.2222C11.4981 19.2235 11.4377 19.2241 11.3771 19.2241C11.3165 19.2241 11.2561 19.2235 11.1959 19.2222L11.1365 21.9883Z" fill="#A4B1B6"/>
<path d="M10.2038 21.7052C10.053 21.6241 9.90875 21.5264 9.77367 21.4118L10.1221 19.1294C10.2398 19.1473 10.3584 19.1628 10.4778 19.1758L10.2038 21.7052Z" fill="#A4B1B6"/>
<path d="M8.62628 20.4341L8.99117 20.745L9.41914 18.9903C9.30287 18.962 9.18759 18.9311 9.07335 18.8979L8.62628 20.4341Z" fill="#A4B1B6"/>
<path d="M7.9122 19.9104C7.78863 19.8466 7.65991 19.7932 7.52739 19.7509L8.06507 18.5308C8.1741 18.5788 8.28436 18.6246 8.39576 18.6679L7.9122 19.9104Z" fill="#A4B1B6"/>
<path d="M6.17334 19.5779L6.65163 19.616L7.42274 18.2134C7.31787 18.1558 7.21435 18.0959 7.11226 18.0338L6.17334 19.5779Z" fill="#A4B1B6"/>
<path d="M5.14825 19.496C4.97167 19.4815 4.80042 19.4485 4.6364 19.3992L6.23062 17.4153C6.32398 17.4904 6.41899 17.5634 6.51558 17.6343L5.14825 19.496Z" fill="#A4B1B6"/>
<path d="M3.43749 18.6004C3.53933 18.7241 3.65294 18.8377 3.77662 18.9396L5.69026 16.9411C5.60367 16.8582 5.51888 16.7734 5.43596 16.6868L3.43749 18.6004Z" fill="#A4B1B6"/>
<path d="M2.97785 17.7407C2.92849 17.5766 2.89557 17.4054 2.88099 17.2288L4.74273 15.8615C4.81367 15.9581 4.88668 16.0531 4.96171 16.1465L2.97785 17.7407Z" fill="#A4B1B6"/>
<path d="M2.76101 15.7255L2.79918 16.2037L4.34326 15.2648C4.28118 15.1627 4.22129 15.0592 4.16363 14.9543L2.76101 15.7255Z" fill="#A4B1B6"/>
<path d="M2.6261 14.8497C2.58383 14.7172 2.53047 14.5884 2.46662 14.4649L3.70913 13.9813C3.75249 14.0927 3.79822 14.203 3.84627 14.312L2.6261 14.8497Z" fill="#A4B1B6"/>
<path d="M1.63202 13.3859L1.94298 13.7508L3.47917 13.3037C3.44593 13.1895 3.4151 13.0742 3.38674 12.958L1.63202 13.3859Z" fill="#A4B1B6"/>
<path d="M0.965191 12.6034C0.850675 12.4683 0.752883 12.3241 0.671809 12.1733L3.20129 11.8993C3.21422 12.0187 3.22971 12.1373 3.24767 12.255L0.965191 12.6034Z" fill="#A4B1B6"/>
<path d="M0.388672 11.2406L3.15487 11.1812C3.15358 11.121 3.15293 11.0606 3.15293 11C3.15293 10.9394 3.15358 10.879 3.15487 10.8188L0.388672 10.7594C0.373128 10.9194 0.373128 11.0806 0.388672 11.2406Z" fill="#A4B1B6"/>
<path d="M0.671809 9.82674C0.752883 9.67594 0.850675 9.53165 0.965191 9.39658L3.24767 9.74502C3.22971 9.86269 3.21422 9.98127 3.20129 10.1007L0.671809 9.82674Z" fill="#A4B1B6"/>
<path fill-rule="evenodd" clip-rule="evenodd" d="M29.6704 16.1713V5.8788H33.3391C34.1399 5.8788 34.8033 6.02454 35.3293 6.31603C35.8553 6.60752 36.249 7.00622 36.5103 7.51214C36.7717 8.0147 36.9024 8.58093 36.9024 9.21081C36.9024 9.84404 36.77 10.4136 36.5053 10.9195C36.244 11.4221 35.8486 11.8208 35.3193 12.1156C34.7932 12.4071 34.1315 12.5529 33.3341 12.5529H31.2233V16.1713H29.6704ZM33.1934 11.2362H31.2233V7.2106H33.1733C33.6892 7.2106 34.1047 7.29603 34.4197 7.46691C34.7379 7.63778 34.9708 7.87398 35.1182 8.17552C35.2656 8.47706 35.3394 8.82216 35.3394 9.21081C35.3394 9.59946 35.2656 9.94623 35.1182 10.2511C34.9708 10.556 34.7396 10.7972 34.4247 10.9748C34.1097 11.149 33.6993 11.2362 33.1934 11.2362Z" fill="#A4B1B6"/>
<path fill-rule="evenodd" clip-rule="evenodd" d="M38.6038 16.0708C38.9991 16.2518 39.4414 16.3422 39.9305 16.3422C40.3561 16.3422 40.7213 16.2802 41.0262 16.1563C41.331 16.0323 41.5807 15.8765 41.775 15.6889C41.9693 15.5013 42.1151 15.3103 42.2122 15.116H42.2725V16.1713H43.74V11.0452C43.74 10.4823 43.6429 10.025 43.4485 9.67317C43.2542 9.31802 43.0046 9.04496 42.6997 8.85399C42.3982 8.66301 42.0732 8.53234 41.7247 8.46199C41.3796 8.38828 41.053 8.35142 40.7447 8.35142C40.279 8.35142 39.8351 8.41843 39.4129 8.55245C38.9907 8.68311 38.6172 8.89419 38.2922 9.18568C37.9705 9.47382 37.7259 9.85242 37.5584 10.3215L38.9706 10.6431C39.0812 10.3717 39.2806 10.1255 39.5687 9.90435C39.8602 9.67987 40.2589 9.56763 40.7648 9.56763C41.2506 9.56763 41.6158 9.68824 41.8604 9.92948C42.1084 10.1707 42.2323 10.5108 42.2323 10.9497V10.9849C42.2323 11.1658 42.167 11.2965 42.0363 11.3769C41.9057 11.4573 41.6963 11.5159 41.4081 11.5528C41.12 11.5863 40.7447 11.6298 40.2823 11.6834C39.9171 11.727 39.5586 11.7906 39.2068 11.8744C38.855 11.9582 38.5368 12.0821 38.252 12.2463C37.9672 12.4105 37.741 12.6333 37.5735 12.9147C37.406 13.1962 37.3222 13.5547 37.3222 13.9902C37.3222 14.4961 37.4361 14.9233 37.6639 15.2718C37.8951 15.6202 38.2084 15.8866 38.6038 16.0708ZM41.3227 14.8898C41.0278 15.054 40.6727 15.1361 40.2572 15.1361C39.8317 15.1361 39.4816 15.0422 39.2068 14.8546C38.9321 14.6636 38.7947 14.3822 38.7947 14.0103C38.7947 13.7423 38.8651 13.5279 39.0058 13.367C39.1499 13.2029 39.3409 13.0772 39.5787 12.9901C39.82 12.903 40.0863 12.841 40.3778 12.8042C40.5018 12.7874 40.6559 12.7673 40.8402 12.7438C41.0245 12.717 41.2138 12.6886 41.4081 12.6584C41.6024 12.6249 41.775 12.5864 41.9257 12.5428C42.0799 12.4959 42.1837 12.4457 42.2373 12.3921V13.3871C42.2373 13.692 42.1586 13.9785 42.0011 14.2465C41.847 14.5112 41.6209 14.7256 41.3227 14.8898Z" fill="#A4B1B6"/>
<path d="M48.4958 8.45193V9.65809H46.9127V13.9048C46.9127 14.1963 46.9563 14.4157 47.0434 14.5631C47.1305 14.7072 47.2427 14.806 47.3801 14.8596C47.5208 14.9099 47.6733 14.935 47.8374 14.935C47.9581 14.935 48.0636 14.9267 48.1541 14.9099C48.2445 14.8932 48.3149 14.8798 48.3651 14.8697L48.6365 16.111C48.5494 16.1445 48.4255 16.178 48.2646 16.2115C48.1038 16.2484 47.9028 16.2685 47.6615 16.2719C47.2662 16.2786 46.8976 16.2082 46.5559 16.0608C46.2141 15.9134 45.9377 15.6855 45.7266 15.3773C45.5156 15.0691 45.41 14.6821 45.41 14.2164V9.65809H44.2792V8.45193H45.41V6.60249H46.9127V8.45193H48.4958Z" fill="#A4B1B6"/>
<path fill-rule="evenodd" clip-rule="evenodd" d="M50.588 15.8397C51.1374 16.1646 51.7925 16.3271 52.553 16.3271C53.1159 16.3271 53.6168 16.2417 54.0557 16.0708C54.498 15.8966 54.8648 15.6537 55.1563 15.3421C55.4512 15.0272 55.6556 14.6603 55.7695 14.2415L54.3472 13.9852C54.2567 14.2264 54.1261 14.4291 53.9552 14.5933C53.7843 14.7575 53.5816 14.8814 53.3471 14.9652C53.1125 15.0456 52.8529 15.0858 52.5681 15.0858C52.1292 15.0858 51.7456 14.992 51.4172 14.8044C51.0889 14.6134 50.8326 14.337 50.6483 13.9751C50.4798 13.6382 50.3898 13.2345 50.3782 12.764H55.865V12.2312C55.865 11.531 55.7712 10.9363 55.5835 10.4471C55.3959 9.95461 55.1396 9.55423 54.8146 9.24599C54.4896 8.93775 54.1227 8.71159 53.714 8.56752C53.3052 8.42346 52.883 8.35142 52.4475 8.35142C51.7305 8.35142 51.1039 8.52062 50.5679 8.85901C50.0351 9.19741 49.6197 9.66815 49.3215 10.2712C49.0266 10.8743 48.8792 11.5712 48.8792 12.3619C48.8792 13.1627 49.0266 13.8612 49.3215 14.4576C49.6197 15.0506 50.0418 15.5113 50.588 15.8397ZM50.3807 11.6382C50.3987 11.3064 50.4812 10.9965 50.6282 10.7085C50.799 10.3768 51.0403 10.1087 51.3519 9.90435C51.6668 9.69662 52.0354 9.59276 52.4575 9.59276C52.8462 9.59276 53.1846 9.68155 53.4727 9.85912C53.7642 10.0367 53.9904 10.2796 54.1512 10.5878C54.312 10.8927 54.3924 11.2429 54.3924 11.6382H50.3807Z" fill="#A4B1B6"/>
<path d="M58.1858 11.5879V16.1713H56.6831V8.45193H58.1255V9.70835H58.221C58.3985 9.29959 58.6766 8.97125 59.0552 8.72332C59.4372 8.47539 59.918 8.35142 60.4976 8.35142C61.0236 8.35142 61.4843 8.46199 61.8797 8.68312C62.275 8.90089 62.5816 9.22589 62.7994 9.65809C63.0172 10.0903 63.1261 10.6247 63.1261 11.2613V16.1713H61.6234V11.4422C61.6234 10.8827 61.4776 10.4454 61.1861 10.1305C60.8946 9.81222 60.4943 9.65307 59.985 9.65307C59.6365 9.65307 59.3266 9.72845 59.0552 9.87922C58.7872 10.03 58.5744 10.2511 58.417 10.5426C58.2628 10.8307 58.1858 11.1792 58.1858 11.5879Z" fill="#A4B1B6"/>
<path d="M67.8957 9.65809V8.45193H66.3126V6.60249H64.8099V8.45193H63.6791V9.65809H64.8099V14.2164C64.8099 14.6821 64.9154 15.0691 65.1265 15.3773C65.3376 15.6855 65.614 15.9134 65.9557 16.0608C66.2975 16.2082 66.666 16.2786 67.0614 16.2719C67.3026 16.2685 67.5037 16.2484 67.6645 16.2115C67.8253 16.178 67.9493 16.1445 68.0364 16.111L67.765 14.8697C67.7147 14.8798 67.6444 14.8932 67.5539 14.9099C67.4634 14.9267 67.3579 14.935 67.2373 14.935C67.0731 14.935 66.9207 14.9099 66.78 14.8596C66.6426 14.806 66.5303 14.7072 66.4432 14.5631C66.3561 14.4157 66.3126 14.1963 66.3126 13.9048V9.65809H67.8957Z" fill="#A4B1B6"/>
<path fill-rule="evenodd" clip-rule="evenodd" d="M71.9529 16.3271C71.1923 16.3271 70.5373 16.1646 69.9878 15.8397C69.4417 15.5113 69.0195 15.0506 68.7213 14.4576C68.4265 13.8612 68.2791 13.1627 68.2791 12.3619C68.2791 11.5712 68.4265 10.8743 68.7213 10.2712C69.0195 9.66815 69.435 9.19741 69.9677 8.85901C70.5038 8.52062 71.1303 8.35142 71.8473 8.35142C72.2829 8.35142 72.705 8.42346 73.1138 8.56752C73.5226 8.71159 73.8895 8.93775 74.2144 9.24599C74.5394 9.55423 74.7957 9.95461 74.9834 10.4471C75.171 10.9363 75.2648 11.531 75.2648 12.2312V12.764H69.778C69.7896 13.2345 69.8797 13.6382 70.0481 13.9751C70.2324 14.337 70.4887 14.6134 70.8171 14.8044C71.1454 14.992 71.529 15.0858 71.9679 15.0858C72.2527 15.0858 72.5124 15.0456 72.7469 14.9652C72.9815 14.8814 73.1842 14.7575 73.355 14.5933C73.5259 14.4291 73.6566 14.2264 73.747 13.9852L75.1693 14.2415C75.0554 14.6603 74.851 15.0272 74.5562 15.3421C74.2647 15.6537 73.8978 15.8966 73.4556 16.0708C73.0166 16.2417 72.5157 16.3271 71.9529 16.3271ZM70.028 10.7085C69.8811 10.9965 69.7986 11.3064 69.7805 11.6382H73.7923C73.7923 11.2429 73.7119 10.8927 73.551 10.5878C73.3902 10.2796 73.1641 10.0367 72.8726 9.85912C72.5844 9.68155 72.246 9.59276 71.8574 9.59276C71.4352 9.59276 71.0667 9.69662 70.7517 9.90435C70.4401 10.1087 70.1989 10.3768 70.028 10.7085Z" fill="#A4B1B6"/>
<path fill-rule="evenodd" clip-rule="evenodd" d="M77.5188 15.8447C78.008 16.163 78.5642 16.3221 79.1874 16.3221C79.6564 16.3221 80.0384 16.2434 80.3332 16.0859C80.6281 15.9284 80.8593 15.7442 81.0268 15.5331C81.1977 15.322 81.3283 15.1344 81.4188 14.9702H81.5444V16.1713H83.0119V5.8788H81.5093V9.70332H81.4188C81.3283 9.5425 81.201 9.35655 81.0368 9.14547C80.876 8.9344 80.6482 8.75012 80.3533 8.59265C80.0619 8.43183 79.6765 8.35142 79.1974 8.35142C78.5776 8.35142 78.0231 8.50889 77.5339 8.82383C77.0448 9.13877 76.6594 9.59276 76.378 10.1858C76.0999 10.7788 75.9609 11.4925 75.9609 12.3267C75.9609 13.161 76.0982 13.8763 76.373 14.4727C76.6511 15.0657 77.033 15.523 77.5188 15.8447ZM80.6147 14.6988C80.3165 14.9267 79.9513 15.0406 79.5191 15.0406C79.0735 15.0406 78.6982 14.9216 78.3933 14.6838C78.0918 14.4425 77.8639 14.1159 77.7098 13.7037C77.5557 13.2916 77.4786 12.8276 77.4786 12.3116C77.4786 11.8024 77.554 11.345 77.7048 10.9396C77.8589 10.5342 78.0867 10.2143 78.3883 9.97973C78.6898 9.7452 79.0668 9.62794 79.5191 9.62794C79.958 9.62794 80.3265 9.74018 80.6247 9.96466C80.9229 10.1891 81.1491 10.5024 81.3032 10.9045C81.4573 11.3065 81.5344 11.7756 81.5344 12.3116C81.5344 12.8544 81.4557 13.3302 81.2982 13.7389C81.1441 14.1477 80.9162 14.4676 80.6147 14.6988Z" fill="#A4B1B6"/>
<path d="M85.5054 6.30198L85.8491 7.10237H85.9838L86.3258 6.30335V7.10237H86.5734V5.86252H86.2736L85.9165 6.74187L85.5576 5.86252H85.2578V7.10237H85.5054V6.30198Z" fill="#A4B1B6"/>
<path d="M84.4172 6.07478V7.10237H84.6648V6.07478H85.0422V5.86252H84.0398V6.07478H84.4172Z" fill="#A4B1B6"/>
</svg>
